<svg id="Layer_1" data-name="Layer 1" xmlns="http://www.w3.org/2000/svg" viewBox="0 0 731.08 285.11"><defs><style>.cls-1{fill:#a7a9ac;}.cls-2{fill:#d1d3d4;}.cls-3{fill:#808285;}.cls-4{fill:#58595b;}.cls-5,.cls-6,.cls-7{fill:#231f20;}.cls-6{opacity:0.4;}.cls-7{opacity:0.1;}</style></defs><polygon class="cls-1" points="427.55 155.42 427.55 158.91 396.16 158.91 396.16 230.54 455.19 230.54 455.19 227.04 455.19 158.91 455.19 155.42 427.55 155.42"/><rect class="cls-1" x="523.65" y="110.01" width="43.95" height="159.25"/><rect class="cls-1" x="466.43" y="134.01" width="43.95" height="135.93"/><polygon class="cls-1" points="637.55 202.89 636.99 202.89 636.31 202.89 636.31 201.91 636.31 200.62 636.31 198.6 636.31 197.31 636.31 195.29 636.31 194 636.31 191.99 636.31 190.69 636.31 188.68 636.31 187.39 636.31 185.37 636.31 184.08 636.31 182.06 636.31 180.77 636.31 178.76 636.31 177.46 636.31 175.45 636.31 174.16 636.31 172.14 636.31 170.85 636.31 168.83 636.31 167.54 636.31 165.53 636.31 164.23 636.31 162.22 636.31 160.93 636.31 158.91 636.31 157.62 636.31 156.58 634.92 156.58 634.92 98.04 631.39 98.04 631.39 88.63 631.42 88.63 631.42 87.96 631.7 87.96 631.7 87.17 626.09 87.17 626.09 86.36 626.09 86.36 626.09 85.67 626.09 85.67 626.09 84.71 626.09 84.71 626.09 84.02 626.09 84.02 626.09 83.05 626.09 83.05 626.09 82.36 626.09 82.36 626.09 81.4 626.09 81.4 626.09 80.71 626.09 80.71 626.09 79.75 626.09 79.75 626.09 79.06 626.09 79.06 626.09 77.88 626.4 77.88 626.4 77.09 623.42 77.09 623.42 76.44 623.42 76.44 623.42 75.75 623.42 75.75 623.42 74.78 623.42 74.78 623.42 74.1 623.42 74.1 623.42 73.13 623.42 73.13 623.42 72.44 623.42 72.44 623.42 72.05 623.42 71.48 623.42 71.48 623.42 71.22 623.62 71.22 623.62 70.42 619.03 70.42 619.03 70.42 619.04 70.42 619.04 69.96 619.03 69.96 619.03 69 619.04 69 619.04 68.31 619.03 68.31 619.03 67.34 619.04 67.34 619.04 66.65 619.03 66.65 619.03 65.69 619.04 65.69 619.04 65 619.03 65 619.03 64.03 619.04 64.03 619.04 63.34 619.03 63.34 619.03 62.38 619.04 62.38 619.04 61.69 619.03 61.69 619.03 61.41 619.17 61.41 619.17 60.62 610.43 60.62 610.43 61.41 610.57 61.41 610.57 61.69 610.57 62.24 610.57 62.38 610.57 63.34 610.57 64.03 610.57 65 610.57 65.69 610.57 66.65 610.57 67.34 610.57 68.31 610.57 69 610.57 69.96 610.57 70.42 610.57 70.42 605.99 70.42 605.99 71.22 606.18 71.22 606.18 71.48 606.18 72.05 606.18 72.44 606.18 73.13 606.18 74.1 606.18 74.78 606.18 75.75 606.18 76.44 606.18 77.11 603.17 77.11 603.17 77.9 603.5 77.9 603.5 78.73 603.51 78.73 603.51 79.06 603.51 79.75 603.51 80.71 603.51 81.4 603.51 82.36 603.51 83.05 603.51 84.02 603.51 84.71 603.51 85.67 603.51 86.36 603.51 87.17 597.69 87.17 597.69 87.96 598.19 87.96 598.19 88.46 598.19 88.79 598.19 88.98 598.19 89.57 598.19 91.47 598.19 92.29 598.19 92.98 598.19 93.11 598.19 95 598.19 95.6 598.19 95.82 598.19 97.11 598.19 97.25 598.19 97.87 597.12 97.87 596.48 97.87 595.31 97.87 594.67 97.87 594.67 156.58 593.3 156.58 593.3 202.89 592.61 202.89 592.06 202.89 591.97 202.89 591.97 256.5 591.97 256.61 591.97 270 597.17 270 603.47 270 604.13 270 605.53 270 608.86 270 610.43 270 611.17 270 612.8 270 616.8 270 618.43 270 619.17 270 620.66 270 623.99 270 625.48 270 626.19 270 632.5 270 637.63 270 637.63 256.61 637.63 256.5 637.63 202.89 637.55 202.89"/><polygon class="cls-1" points="643.21 115.57 643.52 115.57 644.21 115.57 644.52 115.57 645.21 115.57 645.53 115.57 645.88 115.57 645.88 113.22 655.34 113.22 672.63 113.22 672.63 115.57 673.88 115.57 674.19 115.57 675.72 115.57 676.04 115.57 676.37 115.57 676.37 116.86 676.37 117.04 676.37 118.52 676.37 118.7 676.37 120.18 676.37 120.36 676.37 121.84 676.37 122.02 676.37 123.5 676.37 123.68 676.37 125.16 676.37 125.34 676.37 126.82 676.37 127 676.37 128.47 676.37 128.66 676.37 130.14 676.37 130.32 676.37 131.79 676.37 131.98 676.37 133.45 676.37 133.64 676.37 135.11 676.37 135.3 676.37 136.77 676.37 136.96 676.37 138.43 676.37 138.62 676.37 140.09 676.37 140.28 676.37 141.75 676.37 141.94 676.37 143.41 676.37 143.6 676.37 144.86 679.22 144.86 679.22 145.58 679.99 145.58 679.99 147.46 679.99 147.65 681.19 147.65 681.4 147.65 682.33 147.65 682.33 148.82 682.33 149.01 682.33 150.51 682.33 150.7 682.33 152.66 682.33 152.85 682.33 154.34 682.33 154.53 682.33 156.03 682.33 156.22 682.33 157.72 682.33 157.91 682.33 159.4 682.33 159.59 682.33 161.09 682.33 161.28 682.33 162.77 682.33 162.97 682.33 164.61 682.33 164.8 682.33 166.3 682.33 166.49 682.33 167.98 682.33 168.18 682.33 169.67 682.33 169.86 682.33 171.36 682.33 171.55 682.33 173.19 682.33 173.38 682.33 174.88 682.33 175.07 682.33 176.57 682.33 176.72 682.33 176.76 682.33 176.91 682.33 178.4 682.33 178.6 682.33 180.09 682.33 180.28 682.33 181.78 682.33 181.97 682.33 183.46 682.33 183.65 682.33 185.15 682.33 185.34 682.33 186.35 682.94 186.35 683.15 186.35 684.78 186.35 685 186.35 686.49 186.35 686.49 187.54 686.49 187.74 686.49 189.23 686.49 189.42 686.49 190.91 686.49 191.11 686.49 192.6 686.49 192.79 686.49 194.29 686.49 194.48 686.49 195.98 686.49 196.16 686.49 197.66 686.49 197.85 686.49 199.35 686.49 199.54 686.49 201.03 686.49 201.22 686.49 202.56 686.49 202.76 686.49 204.25 686.49 204.44 686.49 205.94 686.49 206.13 686.49 207.62 686.49 207.81 686.49 209.31 686.49 209.5 686.49 210.99 686.49 211.19 686.49 212.68 686.49 212.87 686.49 214.37 686.49 214.56 686.49 216.05 686.49 216.25 686.49 217.89 686.49 218.08 686.49 219.58 686.49 219.77 686.49 221.26 686.49 221.46 686.49 222.95 686.49 223.14 686.49 224.63 686.49 224.83 686.49 226.32 686.49 226.51 686.49 228.01 686.49 228.2 686.49 229.69 686.49 229.89 686.49 231.38 686.49 231.57 686.49 233.06 686.49 233.26 686.49 234.75 686.49 234.94 686.49 236.44 686.49 236.63 686.49 238.13 686.49 238.32 686.49 240.12 686.49 240.31 686.49 241.8 686.49 241.99 686.49 243.49 686.49 243.68 686.49 245.17 686.49 245.36 686.49 246.86 686.49 247.06 686.49 248.54 686.49 248.74 686.49 250.23 686.49 250.42 686.49 251.92 686.49 252.11 686.49 253.6 686.49 253.79 686.49 255.29 686.49 255.48 686.49 256.97 686.49 257.17 686.49 258.66 686.49 258.85 686.49 260.35 686.49 260.54 686.49 262.03 686.49 262.23 686.49 263.72 686.49 263.91 686.49 265.41 686.49 265.6 686.49 267.1 686.49 267.28 686.49 268.78 686.49 268.97 686.49 270.46 686.49 270.65 686.49 271.06 686.49 272.39 685 272.39 684.78 272.39 683.15 272.39 682.94 272.39 682.33 272.39 681.3 272.39 681.1 272.39 679.46 272.39 679.25 272.39 677.45 272.39 677.24 272.39 676.37 272.39 675.72 272.39 675.52 272.39 675.51 272.39 675.51 272.41 673.5 272.41 673.37 272.41 672.32 272.41 671.5 272.41 670.82 272.41 670.2 272.41 670.12 272.41 669.47 272.41 668.78 272.41 668.18 272.41 668.18 272.43 668.09 272.43 668.09 272.41 667.42 272.41 666.74 272.41 666.09 272.41 666.01 272.41 663.96 272.41 662.81 272.41 662.77 272.41 659.93 272.41 659.72 272.41 657.13 272.41 642.23 272.41 642.23 272.39 642.23 272.39 642.23 272.31 642.23 270.83 642.23 270.64 642.23 269.17 642.23 268.98 642.23 267.51 642.23 267.32 642.23 265.85 642.23 265.66 642.23 264.19 642.23 264.01 642.23 262.53 642.23 262.34 642.23 260.87 642.23 260.68 642.23 259.21 642.23 259.02 642.23 257.55 642.23 257.37 642.23 255.89 642.23 255.71 642.23 254.23 642.23 254.04 642.23 252.57 642.23 252.38 642.23 250.91 642.23 250.73 642.23 249.25 642.23 249.07 642.23 247.59 642.23 247.41 642.23 245.93 642.23 245.75 642.23 244.28 642.23 244.09 642.23 243.17 642.23 242.98 642.23 241.51 642.23 241.32 642.23 239.84 642.23 239.66 642.23 238.19 642.23 238.01 642.23 236.53 642.23 236.47 642.23 236.34 642.23 234.87 642.23 234.69 642.23 233.21 642.23 233.03 642.23 231.55 642.23 231.37 642.23 229.89 642.23 229.71 642.23 228.23 642.23 228.05 642.23 226.57 642.23 226.39 642.23 224.91 642.23 224.73 642.23 223.25 642.23 223.07 642.23 221.59 642.23 221.41 642.23 219.93 642.23 219.75 642.23 218.28 642.23 218.09 642.23 216.62 642.23 216.43 642.23 214.96 642.23 214.77 642.23 213.29 642.23 213.11 642.23 211.63 642.23 211.45 642.23 209.97 642.23 209.79 642.23 208.32 642.23 208.13 642.23 206.66 642.23 206.47 642.23 205 642.23 204.81 642.23 203.34 642.23 203.15 642.23 201.68 642.23 201.5 642.23 200.02 642.23 199.84 642.23 198.36 642.23 198.17 642.23 196.7 642.23 196.52 642.23 195.04 642.23 194.86 642.23 193.38 642.23 193.2 642.23 191.72 642.23 191.54 642.23 190.06 642.23 189.88 642.23 188.41 642.23 188.22 642.23 186.74 642.23 186.56 642.23 185.08 642.23 184.9 642.23 183.42 642.23 183.24 642.23 181.76 642.23 181.58 642.23 180.1 642.23 179.92 642.23 179.35 642.23 178.44 642.23 178.26 642.23 176.79 642.23 176.6 642.23 175.12 642.23 174.94 642.23 173.47 642.23 173.28 642.23 171.81 642.23 171.62 642.23 170.15 642.23 169.96 642.23 168.49 642.23 168.31 642.23 166.83 642.23 166.65 642.23 165.17 642.23 164.99 642.23 163.51 642.23 163.32 642.23 161.85 642.23 161.67 642.23 160.19 642.23 160 642.23 158.53 642.23 158.35 642.23 156.87 642.23 156.69 642.23 155.21 642.23 155.03 642.23 153.55 642.23 153.37 642.23 151.89 642.23 151.71 642.23 150.23 642.23 150.05 642.23 148.57 642.23 148.39 642.23 146.91 642.23 146.73 642.23 145.25 642.23 145.07 642.23 143.6 642.23 143.41 642.23 141.94 642.23 141.75 642.23 140.28 642.23 140.09 642.23 138.62 642.23 138.43 642.23 136.96 642.23 136.77 642.23 135.3 642.23 135.11 642.23 133.64 642.23 133.45 642.23 131.98 642.23 131.79 642.23 130.32 642.23 130.14 642.23 128.66 642.23 128.47 642.23 127 642.23 126.82 642.23 125.34 642.23 125.16 642.23 123.68 642.23 123.5 642.23 122.02 642.23 121.84 642.23 120.36 642.23 120.18 642.23 118.7 642.23 118.52 642.23 117.04 642.23 116.86 642.23 115.57 642.23 115.57 643.21 115.57"/><polygon class="cls-1" points="372.2 90.89 372.2 90.87 372 90.87 372 90.89 371.46 90.89 371.46 90.87 371.07 90.87 371.07 90.89 370.56 90.89 370.56 90.87 370.37 90.87 370.37 90.89 368.63 90.89 368.44 90.89 366.71 90.89 366.71 90.87 366.51 90.87 366.51 90.89 365.9 90.89 365.9 90.87 365.9 88.75 364.25 88.75 364.25 88.63 364.57 88.63 364.57 88.28 363.83 88.28 363.83 88.63 364.14 88.63 364.14 88.75 352.01 88.75 351.82 88.75 351.82 87.68 350.46 87.68 350.46 88.75 350.12 88.75 350.12 88.33 348.54 88.33 348.54 88.75 347.65 88.75 347.65 88.33 346.11 88.33 346.11 88.75 343.3 88.75 343.3 90.87 343.3 90.89 342.51 90.89 342.51 90.87 342.31 90.87 342.31 90.89 341.99 90.89 341.58 90.89 340.86 90.89 340.86 90.87 340.67 90.87 340.67 90.89 340.66 90.89 339.96 90.89 339.58 90.89 339.21 90.89 339.21 90.87 339.01 90.87 339.01 90.89 338.89 90.89 338.13 90.89 338.13 90.87 337.74 90.87 337.74 90.89 337.55 90.89 337.55 92.93 337.55 93.28 337.55 94.08 337.55 94.25 337.55 95.25 337.55 95.59 337.55 96.5 337.55 96.67 337.55 98.03 337.55 98.38 337.55 98.93 337.55 99.1 337.55 100.35 337.55 100.7 337.55 101.36 337.55 101.53 337.55 103.14 337.55 103.48 337.55 104.26 337.55 104.44 337.55 105.45 337.55 105.8 337.55 106.69 337.55 106.86 337.55 108.24 337.55 108.58 337.55 109.11 337.55 109.29 337.55 110.56 337.55 110.9 337.55 111.54 337.55 111.72 337.55 112.87 337.55 113.23 337.55 113.97 337.55 114.14 337.55 115.19 337.55 115.54 337.55 116.39 337.55 116.57 337.55 117.97 337.55 118.33 337.55 118.82 337.55 118.99 337.55 120.29 337.55 120.64 337.55 121.24 337.55 121.43 337.55 123.08 337.55 123.43 337.55 124.16 337.55 124.33 337.55 125.41 337.55 125.75 337.55 126.58 337.55 126.76 337.55 128.19 337.55 128.53 337.55 129 337.55 129.19 337.55 130.5 337.55 130.85 337.55 131.44 337.55 131.61 337.55 132.82 337.55 133.17 337.55 133.86 337.55 134.03 337.55 135.14 337.55 135.49 337.55 136.29 337.55 136.46 337.55 137.93 337.55 138.27 337.55 138.72 337.55 138.89 337.55 140.24 337.55 140.59 337.55 141.13 337.55 141.32 337.55 143.02 337.55 143.38 337.55 144.05 337.55 144.22 337.55 145.34 337.55 145.69 337.55 146.47 337.55 146.66 337.55 148.13 337.55 148.48 337.55 149.39 337.55 149.56 337.55 150.45 337.55 150.79 337.55 151.33 337.55 151.51 337.55 152.31 337.55 152.65 337.55 153.27 337.55 153.44 337.55 154.62 337.55 154.97 337.55 155.7 337.55 155.87 337.55 157.4 337.55 157.76 337.55 158.6 337.55 158.79 337.55 159.73 337.55 160.07 337.55 160.55 337.55 160.72 337.55 162.51 337.55 162.85 337.55 163.46 337.55 163.64 337.55 164.82 337.55 165.17 337.55 165.89 337.55 166.06 337.55 167.61 337.55 167.95 337.55 168.31 337.55 168.49 337.55 169.93 337.55 170.28 337.55 170.74 337.55 170.91 337.55 172.71 337.55 173.06 337.55 173.65 337.55 173.83 337.55 175.03 337.55 175.39 337.55 176.08 337.55 176.25 337.55 177.82 337.55 178.17 337.55 178.5 337.55 178.68 337.55 180.13 337.55 180.48 337.55 181.41 337.55 181.59 337.55 182.92 337.55 183.27 337.55 183.84 337.55 184.01 337.55 185.24 337.55 185.58 337.55 186.27 337.55 186.44 337.55 188.02 337.55 188.36 337.55 189.18 337.55 189.36 337.55 190.34 337.55 190.69 337.55 191.12 337.55 191.29 337.55 192.66 337.55 193.01 337.55 193.54 337.55 193.72 337.55 194.97 337.55 195.33 337.55 195.97 337.55 196.15 337.55 197.76 337.55 198.11 337.55 198.89 337.55 199.06 337.55 200.09 337.55 200.42 337.55 201.31 337.55 201.48 337.55 202.86 337.55 203.21 337.55 203.74 337.55 203.91 337.55 205.18 337.55 205.54 337.55 206.16 337.55 206.33 337.55 207.97 337.55 208.32 337.55 209.07 337.55 209.24 337.55 210.29 337.55 210.63 337.55 211.5 337.55 211.68 337.55 212.6 337.55 212.95 337.55 213.44 337.55 213.61 337.55 214.93 337.55 215.27 337.55 215.87 337.55 216.04 337.55 217.7 337.55 218.06 337.55 218.79 337.55 218.95 337.55 220.04 337.55 220.37 337.55 221.2 337.55 221.38 337.55 222.8 337.55 223.16 337.55 223.63 337.55 223.8 337.55 225.13 337.55 225.47 337.55 226.06 337.55 226.23 337.55 227.92 337.55 228.26 337.55 228.96 337.55 229.14 337.55 230.23 337.55 230.58 337.55 231.4 337.55 231.57 337.55 232.55 337.55 232.9 337.55 233.82 337.55 233.99 337.55 234.87 337.55 235.22 337.55 236.25 337.55 236.42 337.55 237.65 337.55 238 337.55 238.68 337.55 238.84 337.55 239.98 337.55 240.32 337.55 241.1 337.55 241.27 337.55 242.76 337.55 243.1 337.55 243.53 337.55 243.7 337.55 245.08 337.55 245.42 337.55 245.94 337.55 246.12 337.55 247.86 337.55 248.21 337.55 248.86 337.55 249.03 337.55 250.18 337.55 250.52 337.55 251.29 337.55 251.46 337.55 252.5 337.55 252.84 337.55 253.72 337.55 253.89 337.55 254.81 337.55 255.16 337.55 255.66 337.55 255.82 337.55 257.59 337.55 257.95 337.55 258.57 337.55 258.75 337.55 259.92 337.55 260.26 337.55 261 337.55 261.17 337.55 262.7 337.55 263.05 337.55 263.9 337.55 264.08 337.55 265.02 337.55 265.37 337.55 266.33 337.55 266.5 337.55 269.39 341.58 269.39 341.99 269.39 345.93 269.39 346.03 269.39 354.73 269.39 354.81 269.39 372.49 269.39 372.49 265.37 372.49 265.02 372.49 263.05 372.49 262.7 372.49 260.26 372.49 259.92 372.49 257.95 372.49 257.59 372.49 120.94 372.49 90.89 372.2 90.89"/><polygon class="cls-1" points="233.43 263.42 233.43 259.73 230.46 259.73 230.46 258.92 230.23 258.92 230.23 255.48 230.02 255.48 230.02 258.92 229.8 258.92 229.8 259.73 224.38 259.73 224.38 259.52 224.38 259.05 224.38 258.58 224.38 257.71 224.38 257.23 224.38 256.77 224.38 255.89 224.38 255.41 224.38 254.78 224.38 253.91 224.38 253.42 224.38 252.96 224.38 252.09 224.38 251.61 224.38 251.16 224.38 250.27 224.38 249.79 224.38 249.34 224.38 248.45 224.38 247.98 224.38 247.52 224.38 246.64 224.38 246.16 224.38 245.71 224.38 244.82 224.38 244.34 224.38 243.89 224.38 243.01 224.38 242.53 224.38 242.08 224.38 241.2 224.38 240.71 224.38 240.24 224.38 239.36 224.38 238.87 224.38 238.42 224.38 237.54 224.38 237.06 224.38 236.6 224.38 235.73 224.38 235.24 224.38 234.78 224.38 233.91 224.38 233.43 224.38 232.97 224.38 232.09 224.38 231.61 224.38 231.16 224.38 230.28 224.38 229.8 224.38 229.35 224.38 228.47 224.38 227.99 224.38 227.53 224.38 226.65 224.38 226.17 224.38 225.65 224.38 224.76 224.38 224.29 224.38 223.83 224.38 222.95 224.38 222.47 224.38 222.02 224.38 221.13 224.38 220.66 224.38 220.2 224.38 219.32 224.38 218.84 224.38 218.38 224.38 217.5 224.38 217.02 224.38 216.57 224.38 215.69 224.38 215.21 224.38 214.75 224.38 213.88 224.38 213.39 224.38 212.94 224.38 212.06 224.38 211.58 224.38 211.13 224.38 210.24 224.38 209.76 224.38 209.31 224.38 208.43 224.38 207.95 224.38 207.49 224.38 206.61 224.38 206.13 224.38 205.68 224.38 204.8 224.38 204.32 224.38 203.86 224.38 202.98 224.38 202.5 224.38 202.05 224.38 201.16 224.38 200.69 224.38 200.23 224.38 199.36 224.38 198.87 224.38 198.42 224.38 197.54 224.38 197.06 224.38 196.61 224.38 195.73 224.38 195.24 224.38 194.79 224.38 193.91 224.38 193.43 224.38 192.97 224.38 192.09 224.38 191.61 224.38 191.16 224.38 190.28 224.38 189.8 224.38 189.34 224.38 188.47 224.38 187.98 224.38 187.53 224.38 186.65 224.38 186.17 224.38 185.71 224.38 184.83 224.38 184.35 224.38 183.9 224.38 183.01 224.38 182.54 224.38 182.08 224.38 181.2 224.38 180.72 224.38 180.27 224.38 179.38 224.38 178.91 224.38 178.45 224.38 177.57 224.38 177.09 224.38 176.64 224.38 175.76 224.38 175.28 224.38 174.82 224.38 173.94 224.38 173.46 224.38 173.01 224.38 172.13 224.38 171.64 224.38 171.19 224.38 170.31 224.38 169.83 224.38 169.37 224.38 168.5 224.38 168.01 224.38 167.56 224.38 166.68 224.38 166.2 224.38 165.74 224.38 164.87 224.38 164.38 224.38 163.93 224.38 163.05 224.38 162.57 224.38 162.11 224.38 161.23 224.38 160.75 224.38 160.3 224.38 159.42 224.38 158.94 224.38 158.48 224.38 157.6 224.38 157.12 224.38 156.67 224.38 155.79 224.38 155.31 224.38 154.85 224.38 153.97 224.38 153.49 224.38 153.04 224.38 152.16 224.38 151.68 224.38 151.22 224.38 150.35 224.38 149.86 224.38 149.41 224.38 148.53 224.38 148.05 224.38 147.59 224.38 146.72 224.38 146.23 224.38 145.78 224.38 144.9 224.38 144.41 224.38 143.96 224.38 143.08 224.38 142.6 224.38 142.15 224.38 141.27 224.38 140.79 224.38 140.33 224.38 139.45 224.38 138.97 224.38 138.51 224.38 137.64 224.38 137.16 224.38 136.7 224.38 135.82 224.38 135.34 224.38 134.89 224.38 134.01 224.38 133.53 224.38 133.07 224.38 132.19 224.38 131.71 224.38 131.26 224.38 130.38 224.38 129.9 224.38 129.44 224.38 128.56 224.38 128.08 224.38 127.63 224.38 126.75 224.38 126.27 224.38 125.81 224.38 124.93 224.38 124.45 224.38 124 224.38 123.12 224.38 122.64 224.38 122.18 224.38 121.3 224.38 120.82 224.38 120.37 224.38 119.49 224.38 119 224.38 118.55 224.38 117.67 224.38 117.19 224.38 116.73 224.38 115.86 224.38 115.38 224.38 114.92 224.38 114.04 224.38 113.56 224.38 113.11 224.38 112.22 224.38 111.75 224.38 111.29 224.38 110.41 224.38 109.93 224.38 109.48 224.38 108.59 224.38 108.11 224.38 107.66 224.38 106.78 224.38 106.3 224.38 105.85 224.38 104.97 224.38 104.48 224.38 104.03 224.38 103.15 224.38 102.67 224.38 102.21 224.38 101.33 224.38 100.85 224.38 100.4 224.38 99.52 224.38 99.04 224.38 98.58 224.38 97.7 224.38 97.22 224.38 96.77 224.38 95.89 224.38 95.4 224.38 94.95 224.38 94.07 224.38 93.59 224.38 93.14 224.38 92.26 224.38 91.78 224.38 91.32 224.38 90.44 224.38 89.96 224.38 89.51 224.38 88.63 224.38 88.15 224.38 87.69 224.38 86.81 224.38 86.33 224.38 85.88 224.38 85.33 224.38 85 224.38 84.52 224.38 81.89 223.47 81.89 222.55 81.89 221.97 81.89 221.97 80.62 220.81 80.62 220.81 77.78 220.46 77.78 220.46 70.02 219.96 70.02 219.96 77.78 219.6 77.78 219.6 80.62 218.51 80.62 218.51 78.16 218.23 78.16 218.23 74.85 218.3 74.85 218.3 74.3 218.02 74.3 218.02 74.85 218.08 74.85 218.08 78.16 217.81 78.16 217.81 80.62 216.91 80.62 216.91 76.5 216.42 76.5 216.42 66.31 215.73 66.31 215.73 76.5 215.25 76.5 215.25 80.62 214.45 80.62 214.45 79.12 210.25 79.12 210.25 74.69 209.98 74.69 209.98 71.38 210.04 71.38 210.04 70.83 209.76 70.83 209.76 71.38 209.82 71.38 209.82 74.69 209.55 74.69 209.55 79.12 208.92 79.12 208.92 64.41 208.28 64.41 208.28 62.9 208.92 62.9 208.92 62.11 208.28 62.11 208.28 60.61 208.92 60.61 208.92 59.82 208.28 59.82 208.28 58.31 208.92 58.31 208.92 57.52 208.28 57.52 208.28 56.01 208.92 56.01 208.92 55.23 208.28 55.23 208.28 53.72 208.92 53.72 208.92 52.93 208.28 52.93 208.28 51.42 208.92 51.42 208.92 50.63 208.28 50.63 208.28 49.13 208.92 49.13 208.92 48.34 208.28 48.34 208.28 46.83 208.92 46.83 208.92 46.04 208.28 46.04 208.28 44.53 208.92 44.53 208.92 43.75 208.28 43.75 208.28 35.55 206.62 35.55 206.62 43.75 205.97 43.75 205.97 44.53 206.62 44.53 206.62 46.04 205.97 46.04 205.97 46.83 206.62 46.83 206.62 48.34 205.97 48.34 205.97 49.13 206.62 49.13 206.62 50.63 205.97 50.63 205.97 51.42 206.62 51.42 206.62 52.93 205.97 52.93 205.97 53.72 206.62 53.72 206.62 55.23 205.97 55.23 205.97 56.01 206.62 56.01 206.62 57.52 205.97 57.52 205.97 58.31 206.62 58.31 206.62 59.82 205.97 59.82 205.97 60.61 206.62 60.61 206.62 62.11 205.97 62.11 205.97 62.9 206.62 62.9 206.62 64.41 205.97 64.41 205.97 79.12 203.26 79.12 203.26 75.47 202.91 75.47 202.91 67.71 202.41 67.71 202.41 75.47 202.05 75.47 202.05 79.12 201.34 79.12 201.34 80.62 201.03 80.62 201.03 76.95 200.7 76.95 200.7 72.98 200.78 72.98 200.78 72.32 200.44 72.32 200.44 72.98 200.52 72.98 200.52 76.95 200.19 76.95 200.19 80.62 199.13 80.62 199.13 77.78 198.78 77.78 198.78 70.02 198.28 70.02 198.28 77.78 197.92 77.78 197.92 80.62 196.83 80.62 196.83 78.16 196.56 78.16 196.56 74.85 196.62 74.85 196.62 74.3 196.34 74.3 196.34 74.85 196.4 74.85 196.4 78.16 196.13 78.16 196.13 80.62 193.69 80.62 193.69 81.89 193.23 81.89 191.41 81.89 191.25 81.89 191.25 263.42 183.19 263.42 183.19 265.86 183.19 265.93 183.19 267.21 183.19 269.87 183.99 269.87 184.78 269.87 186.55 269.87 187.08 269.87 190.95 269.87 192.07 269.87 192.94 269.87 194.06 269.87 194.93 269.87 196.06 269.87 196.93 269.87 198.05 269.87 198.92 269.87 200.05 269.87 200.92 269.87 202.04 269.87 202.92 269.87 204.04 269.87 204.91 269.87 206.03 269.87 206.9 269.87 208.02 269.87 208.9 269.87 210.02 269.87 210.89 269.87 212.02 269.87 212.89 269.87 214.01 269.87 214.19 269.87 214.88 269.87 215.66 269.87 216 269.87 216.56 269.87 216.88 269.87 216.91 269.87 218 269.87 218.56 269.87 218.87 269.87 218.91 269.87 219.99 269.87 220.55 269.87 220.87 269.87 220.9 269.87 221.99 269.87 222.55 269.87 222.86 269.87 222.9 269.87 223.98 269.87 224.54 269.87 224.9 269.87 225.2 269.87 225.55 269.87 226.53 269.87 226.89 269.87 227.2 269.87 227.55 269.87 228.53 269.87 228.88 269.87 229.19 269.87 229.54 269.87 230.52 269.87 230.88 269.87 231.19 269.87 231.54 269.87 231.96 269.87 232.52 269.87 232.87 269.87 233.43 269.87 234.18 269.87 234.18 265.93 234.18 265.86 234.18 263.42 233.43 263.42"/><polygon class="cls-1" points="172.13 219.45 172.13 102.07 163.71 63.4 157.7 63.4 157.7 101.38 156.58 101.38 156.58 92.1 141.98 92.1 141.98 101.38 140.86 101.38 140.86 63.4 134.85 63.4 126.43 102.07 126.43 219.45 124.92 219.45 124.92 269.29 126.43 269.29 133.96 269.29 140.86 269.29 157.7 269.29 164.6 269.29 172.13 269.29 179.65 269.29 179.65 219.45 172.13 219.45"/><polygon class="cls-2" points="465.86 143.89 464.4 143.89 464.4 138.51 434.69 138.51 434.69 136.34 433.64 136.34 433.64 134.39 433.03 134.39 433.03 136.34 432.75 136.34 432.75 131.44 432.17 131.44 432.17 136.34 431.37 136.34 431.37 138.51 429.81 138.51 429.81 143.89 428.34 143.89 428.34 150.2 429.81 150.2 429.81 200.25 427.17 200.25 427.17 196.87 402.55 196.87 402.55 200.25 399.29 200.25 399.29 269.99 429.81 269.99 433.88 269.99 464.4 269.99 464.4 150.2 465.86 150.2 465.86 143.89"/><polygon class="cls-2" points="728.98 180.89 728.98 178.23 720.81 178.23 720.81 174.32 715.88 174.32 715.88 172.74 715.88 171.98 715.88 169.47 713.86 169.47 713.86 155.26 713.16 155.26 713.16 155.19 713.18 155.19 713.18 154.75 713.16 154.75 713.16 154.15 713.18 154.15 713.18 153.71 713.16 153.71 713.16 153.11 713.18 153.11 713.18 152.67 712.62 152.67 712.62 152.6 712.19 152.6 712.19 152.67 708.21 152.67 708.21 152.6 707.77 152.6 707.77 152.67 704.31 152.67 704.31 152.6 703.87 152.6 703.87 152.67 702.77 152.67 702.77 153.11 702.8 153.11 702.8 153.71 702.77 153.71 702.77 154.15 702.8 154.15 702.8 154.75 702.77 154.75 702.77 155.19 702.8 155.19 702.8 155.26 702.13 155.26 702.13 169.47 700.1 169.47 700.1 171.98 700.1 172.74 700.1 174.32 695.18 174.32 695.18 178.23 687 178.23 687 180.89 684.9 180.89 684.9 241.63 684.9 248.56 684.9 257.86 684.9 258.64 684.9 269.24 687.48 269.24 687.48 269.25 688.31 269.25 688.31 269.24 688.99 269.24 688.99 269.25 689.83 269.25 689.83 269.24 691.67 269.24 691.67 269.25 692.5 269.25 692.5 269.24 693.19 269.24 693.19 269.25 694.02 269.25 694.02 269.24 696.21 269.24 696.21 269.25 697.04 269.25 697.04 269.24 697.73 269.24 697.73 269.25 698.56 269.25 698.56 269.24 706.82 269.24 706.82 269.25 707.65 269.25 707.65 269.24 708.34 269.24 708.34 269.25 709.16 269.25 709.16 269.24 717.3 269.24 717.3 269.25 718.13 269.25 718.13 269.24 718.82 269.24 718.82 269.25 719.64 269.25 719.64 269.24 722.01 269.24 722.01 269.25 722.85 269.25 722.85 269.24 723.53 269.24 723.53 269.25 724.36 269.25 724.36 269.24 726.21 269.24 726.21 269.25 727.04 269.25 727.04 269.24 727.73 269.24 727.73 269.25 728.56 269.25 728.56 269.24 731.08 269.24 731.08 258.64 731.08 257.86 731.08 248.56 731.08 241.63 731.08 180.89 728.98 180.89"/><polygon class="cls-2" points="625.27 142.85 625.27 138.3 572.61 138.3 572.61 142.85 567.6 142.85 567.6 205.29 630.28 205.29 630.28 142.85 625.27 142.85"/><polygon class="cls-2" points="347.65 112.07 347.65 108.73 324.64 108.73 324.64 102.41 310.35 102.41 310.35 108.73 307.12 108.73 307.12 112.07 305.23 112.07 305.23 269.96 349.54 269.96 349.54 112.07 347.65 112.07"/><polygon class="cls-2" points="29.36 244.32 29.87 244.32 31.23 244.32 31.73 244.32 32.78 244.32 33.29 244.32 33.29 243.89 33.29 242.54 33.29 241.88 33.29 241.45 33.29 240.11 33.29 239.45 33.29 239.01 33.29 237.67 33.29 237.01 33.29 236.58 33.29 235.23 33.29 234.57 33.29 234.14 33.29 232.8 33.29 232.13 33.29 231.7 33.29 230.36 33.29 229.7 33.29 229.27 33.29 227.92 33.29 227.26 33.29 226.83 33.29 225.48 33.29 224.82 33.29 224.39 33.29 223.04 33.29 222.38 33.29 221.95 33.29 220.61 33.29 219.95 33.29 219.51 33.29 218.17 33.29 217.51 33.29 217.08 33.29 215.73 33.29 215.07 33.29 214.64 33.29 213.29 33.29 212.63 33.29 212.2 33.29 210.86 33.29 210.2 33.29 209.76 33.29 208.42 33.29 207.76 33.29 207.33 33.29 205.99 33.29 205.32 33.29 204.89 33.29 203.54 33.29 202.88 33.29 202.45 33.29 201.11 33.29 200.44 33.29 200.02 33.29 198.67 33.29 198.01 33.29 197.58 33.29 196.23 33.29 195.57 33.29 195.14 33.29 193.79 33.29 193.13 33.29 192.7 33.29 191.36 33.29 190.7 33.29 190.26 33.29 188.92 33.29 188.26 33.29 187.83 33.29 186.49 33.29 185.82 33.29 185.4 33.29 184.05 33.29 183.38 33.29 182.96 33.29 181.6 33.29 180.95 33.29 180.52 33.29 179.17 33.29 178.51 33.29 178.08 33.29 176.73 33.29 176.07 33.29 175.64 33.29 174.3 33.29 173.63 33.29 173.21 33.29 171.86 33.29 171.2 33.29 170.76 33.29 169.42 33.29 168.76 33.29 168.33 33.29 166.98 33.29 166.32 33.29 165.89 33.29 164.54 33.29 163.89 33.29 163.45 33.29 162.11 33.29 161.45 33.29 161.01 33.29 159.67 33.29 159.01 33.29 158.58 33.29 157.23 33.29 156.57 33.29 156.14 33.29 154.8 33.29 154.13 33.29 153.7 33.29 152.36 33.29 151.7 33.29 151.27 33.29 149.92 33.29 149.26 33.29 148.83 33.29 147.48 33.29 146.82 33.29 146.39 33.29 145.04 33.29 144.38 33.29 143.95 33.29 142.61 33.29 141.95 33.29 141.52 33.29 140.17 33.29 139.51 33.29 139.08 33.29 137.73 33.29 137.07 33.29 136.64 33.29 135.3 33.29 134.64 33.29 134.2 33.29 132.86 33.29 132.19 33.29 131.77 33.29 130.42 33.29 129.76 33.29 129.33 33.29 127.98 33.29 127.32 33.29 126.89 33.29 125.55 33.29 124.88 33.29 124.46 33.29 123.11 33.29 122.45 33.29 122.02 33.29 120.67 33.29 120.01 33.29 119.58 33.29 118.24 33.29 117.58 33.29 117.14 33.29 115.8 33.29 115.14 33.29 114.7 33.29 112.49 33.5 112.49 33.5 112.49 33.74 112.49 33.74 112.49 34.13 112.49 34.13 112.49 34.36 112.49 34.36 112.49 34.75 112.49 34.75 112.49 34.98 112.49 34.98 112.49 35.37 112.49 35.37 112.49 35.6 112.49 35.6 112.49 36.61 112.49 36.61 112.49 36.85 112.49 36.85 112.49 37.86 112.49 37.86 112.49 38.09 112.49 38.09 112.49 38.59 112.49 38.59 112.11 38.59 111.8 38.59 111.78 38.59 111.61 38.59 111.18 38.59 110.48 38.59 110.18 38.59 108.98 38.59 108.55 38.59 108.28 38.59 108.05 38.59 109.74 38.59 108.42 38.59 108.11 38.59 107.58 38.59 107.14 38.59 106.79 38.59 106.48 38.59 106.39 39.04 106.32 39.04 106.27 39.27 106.27 39.27 106.29 39.72 106.22 39.72 106.2 39.84 106.2 40.96 106.03 40.96 106.01 41.08 106.01 43.45 105.65 43.45 105.63 43.57 105.63 44.69 105.46 44.69 105.44 44.81 105.44 45.94 105.27 45.94 105.26 46 105.26 48.36 104.9 48.36 104.86 48.59 104.86 48.59 104.86 50.85 104.52 50.85 104.48 51.08 104.48 51.08 104.48 53.33 104.14 53.33 104.12 53.46 104.12 54.58 103.95 54.58 103.93 54.7 103.93 55.82 103.76 55.82 103.74 55.95 103.74 57.06 103.57 57.06 103.55 57.19 103.55 57.69 103.47 57.69 103.43 57.92 103.43 57.92 103.44 58.31 103.38 58.31 103.34 58.54 103.34 58.54 103.34 58.93 103.28 58.93 103.14 59.16 103.14 59.16 103.25 59.55 103.19 59.55 103.14 59.78 103.14 59.78 103.15 59.84 103.14 59.84 106.48 59.84 106.79 59.84 107.14 59.84 107.58 59.84 108.11 59.84 108.42 59.84 109.74 59.84 108.05 59.84 108.28 59.84 108.55 59.84 108.98 59.84 110.18 59.84 110.48 59.84 111.18 59.84 111.61 59.84 111.78 59.84 111.8 59.84 112.11 59.84 112.49 60.56 112.49 60.56 112.49 60.79 112.49 60.79 112.49 61.8 112.49 61.8 112.49 62.03 112.49 62.03 112.49 63.04 112.49 63.04 112.49 63.27 112.49 63.27 112.49 63.66 112.49 63.66 112.49 63.9 112.49 63.9 112.49 64.28 112.49 64.28 112.49 64.52 112.49 64.52 112.49 64.91 112.49 64.91 112.49 65.14 112.49 65.14 112.49 65.15 112.49 65.15 114.7 65.15 115.14 65.15 115.8 65.15 117.14 65.15 117.58 65.15 118.24 65.15 119.58 65.15 120.01 65.15 120.67 65.15 122.02 65.15 122.45 65.15 123.11 65.15 124.46 65.15 124.88 65.15 125.55 65.15 126.89 65.15 127.32 65.15 127.98 65.15 129.33 65.15 129.76 65.15 130.42 65.15 131.77 65.15 132.19 65.15 132.86 65.15 134.2 65.15 134.64 65.15 135.3 65.15 136.64 65.15 137.07 65.15 137.73 65.15 139.08 65.15 139.51 65.15 140.17 65.15 141.52 65.15 141.95 65.15 142.61 65.15 143.95 65.15 144.38 65.15 145.04 65.15 146.39 65.15 146.82 65.15 147.48 65.15 148.83 65.15 149.26 65.15 149.92 65.15 151.27 65.15 151.7 65.15 152.36 65.15 153.7 65.15 154.13 65.15 154.8 65.15 156.14 65.15 156.57 65.15 157.23 65.15 158.58 65.15 159.01 65.15 159.67 65.15 161.01 65.15 161.45 65.15 162.11 65.15 163.45 65.15 163.89 65.15 164.54 65.15 165.89 65.15 166.32 65.15 166.98 65.15 168.33 65.15 168.76 65.15 169.42 65.15 170.76 65.15 171.2 65.15 171.86 65.15 173.21 65.15 173.63 65.15 174.3 65.15 175.64 65.15 176.07 65.15 176.73 65.15 178.08 65.15 178.51 65.15 179.17 65.15 180.52 65.15 180.95 65.15 181.6 65.15 182.96 65.15 183.38 65.15 184.05 65.15 185.4 65.15 185.82 65.15 186.49 65.15 187.83 65.15 188.26 65.15 188.92 65.15 190.26 65.15 190.7 65.15 191.36 65.15 192.7 65.15 193.13 65.15 193.79 65.15 195.14 65.15 195.57 65.15 196.23 65.15 197.58 65.15 198.01 65.15 198.67 65.15 200.02 65.15 200.44 65.15 201.11 65.15 202.45 65.15 202.88 65.15 203.54 65.15 204.89 65.15 205.32 65.15 205.99 65.15 207.33 65.15 207.76 65.15 208.42 65.15 209.76 65.15 210.2 65.15 210.86 65.15 212.2 65.15 212.63 65.15 213.29 65.15 214.64 65.15 215.07 65.15 215.73 65.15 217.08 65.15 217.51 65.15 218.17 65.15 219.51 65.15 219.95 65.15 220.61 65.15 221.95 65.15 222.38 65.15 223.04 65.15 224.39 65.15 224.82 65.15 225.48 65.15 226.83 65.15 227.26 65.15 227.92 65.15 229.27 65.15 229.7 65.15 230.36 65.15 231.7 65.15 232.13 65.15 232.8 65.15 234.14 65.15 234.57 65.15 235.23 65.15 236.58 65.15 237.01 65.15 237.67 65.15 239.01 65.15 239.45 65.15 240.11 65.15 241.45 65.15 241.88 65.15 242.54 65.15 243.89 65.15 244.32 65.15 244.98 65.15 246.33 65.15 246.76 65.15 247.42 65.15 248.76 65.15 249.2 65.15 249.86 65.15 251.2 65.15 251.64 65.15 252.29 65.15 253.64 65.15 254.07 65.15 254.73 65.15 256.08 65.15 256.51 65.15 257.17 65.15 258.51 65.15 258.95 65.15 259.6 65.15 260.96 65.15 261.38 65.15 262.05 65.15 263.39 65.15 263.82 65.15 264.15 65.15 265.06 65.15 265.83 65.15 266.26 65.15 266.92 65.15 269.1 51.53 269.1 51.53 269.13 51.29 269.13 51.29 269.1 51.29 269.1 49.22 269.1 47.35 269.1 47.35 269.13 47.12 269.13 47.12 269.1 33.29 269.1 32.78 269.1 31.73 269.1 31.23 269.1 29.87 269.1 29.36 269.1 28 269.1 27.5 269.1 26.14 269.1 25.63 269.1 24.43 269.1 24.43 269.07 24.43 266.92 24.43 266.26 24.43 265.83 24.43 264.49 24.43 263.82 24.43 263.39 24.43 262.05 24.43 261.38 24.43 260.96 24.43 259.6 24.43 258.95 24.43 258.51 24.43 258.5 24.43 257.17 24.43 256.51 24.43 256.08 24.43 254.73 24.43 254.07 24.43 253.64 24.43 252.29 24.43 251.64 24.43 251.2 24.43 249.86 24.43 249.2 24.43 248.76 24.43 247.42 24.43 246.78 24.43 246.76 24.43 246.33 24.43 244.32 29.36 244.32"/><polygon class="cls-2" points="185.26 152.41 185.26 147.76 185.26 147.76 171.05 134.87 166.06 134.87 151.85 147.76 151.85 152.41 148.66 152.41 148.66 270.4 188.45 270.4 188.45 152.41 185.26 152.41"/><polygon class="cls-2" points="235.14 112.12 235.14 108.78 210.73 108.78 210.73 112.12 209.6 112.12 209.6 270.01 236.28 270.01 236.28 112.12 235.14 112.12"/><rect class="cls-2" x="488.33" y="153.46" width="19.06" height="107.67"/><rect class="cls-3" x="475.89" y="167.53" width="34.99" height="101.44"/><polygon class="cls-3" points="665.26 207.05 665.26 202.51 612.6 202.51 612.6 207.05 607.59 207.05 607.59 269.49 670.27 269.49 670.27 207.05 665.26 207.05"/><path class="cls-3" d="M214.58,403.26A1.28,1.28,0,1,0,213.3,402,1.28,1.28,0,0,0,214.58,403.26Z" transform="translate(-35.23 -196.49)"/><path class="cls-3" d="M225.52,405.46a1.28,1.28,0,1,0-1.28-1.28A1.28,1.28,0,0,0,225.52,405.46Z" transform="translate(-35.23 -196.49)"/><path class="cls-3" d="M230.76,408.26a1.28,1.28,0,0,0,0-2.56,1.28,1.28,0,0,0,0,2.56Z" transform="translate(-35.23 -196.49)"/><path class="cls-3" d="M234.64,411.65a1.28,1.28,0,1,0-1.28-1.28A1.28,1.28,0,0,0,234.64,411.65Z" transform="translate(-35.23 -196.49)"/><path class="cls-3" d="M238.22,416a1.28,1.28,0,1,0-1.28-1.28A1.28,1.28,0,0,0,238.22,416Z" transform="translate(-35.23 -196.49)"/><path class="cls-3" d="M240.9,421.49a1.28,1.28,0,1,0-1.28-1.28A1.27,1.27,0,0,0,240.9,421.49Z" transform="translate(-35.23 -196.49)"/><path class="cls-3" d="M241.35,426.17a1.28,1.28,0,1,0,2.56,0,1.28,1.28,0,1,0-2.56,0Z" transform="translate(-35.23 -196.49)"/><path class="cls-3" d="M242.41,431.69a1.27,1.27,0,0,0-1.26,1.19c.08-.86.12-1.73.12-2.6a26.93,26.93,0,0,0-21.39-26.38,1.26,1.26,0,1,0-.52-.1,27.27,27.27,0,0,0-5.05-.48,26.94,26.94,0,0,0-26.95,27c0,.68,0,1.36.1,2a1.32,1.32,0,0,0-.77-.28,1.28,1.28,0,1,0,0,2.56,1.24,1.24,0,0,0,1-.48,26.74,26.74,0,0,0,1.24,5.1,1.22,1.22,0,0,0-.62-.19,1.28,1.28,0,0,0,0,2.56,1.27,1.27,0,0,0,1.19-.83,27,27,0,0,0,24.31,16.45v6.65h1.39v-6.67a26.89,26.89,0,0,0,11.66-3,1.25,1.25,0,0,0-.7,1.12,1.28,1.28,0,1,0,1.28-1.28,1.07,1.07,0,0,0-.43.09,27.18,27.18,0,0,0,6.4-4.76,26.83,26.83,0,0,0,6.25-9.85,1.28,1.28,0,1,0,1.19-.79,1.28,1.28,0,0,0-1.19.79,27.11,27.11,0,0,0,1.5-6.46,1.27,1.27,0,0,0,1.27,1.25,1.28,1.28,0,0,0,0-2.56Zm-25.72.08-1.05-.77,0,0,23,9a26.49,26.49,0,0,1-2.32,4.49Zm19.42,13c-.19.29-.39.57-.59.85l-13.8-10.17Zm-22.85-12.48-9.76,21.82a27.42,27.42,0,0,1-4-2.25Zm-14,19.35c-.37-.26-.72-.53-1.08-.8l13-16.13Zm-6.12-6a28,28,0,0,1-2.27-3.76l21.81-10.69.11,0-.6.5Zm14.23-10L194,446.76c-.22-.28-.44-.55-.65-.83Zm-19.06-8.14a24.09,24.09,0,0,1,.57-3.31l22.93,5.5.26.08Zm20.48,2.33-20.61-.62c0-.45.05-.89.09-1.34Zm-7.86-22a26,26,0,0,1,4.58-2.18l8,22.09.38,1.3h0Zm10.33,17.72-11.77-16.8c.37-.25.74-.5,1.12-.73Zm12.6-19.66-8.72,22,4.37-23.24A26.54,26.54,0,0,1,223.81,405.85Zm-7.45,23.94-.1,0,.67-.3,22-8.14a26.78,26.78,0,0,1,1.13,4.2Zm23.79-3.85c.06.34.11.69.15,1L222.73,429ZM222.67,427l15.77-6.93c.14.31.26.64.38,1Zm-5.84,2.15-.52.2L237,417.2a25.74,25.74,0,0,1,1.28,2.51Zm2-1.74L236,415.61c.28.41.55.83.8,1.27Zm-2.69,1.39,1.47-1.58,15.86-14.74a26.88,26.88,0,0,1,2.28,2.83Zm-.11-.62,12.37-19.95a27,27,0,0,1,3.73,2.9L217.4,427Zm-1,.85,10.59-22.34a25.77,25.77,0,0,1,2.42,1.34Zm1.5-4.06,7.54-19,1.21.53Zm-1.41.16,3-20.76c.3,0,.6.1.89.15ZM214,428.17v.12l-.26-.71-6.62-22.51a26.35,26.35,0,0,1,4.28-.84Zm-2.22-24,1-.08.87,17.69Zm-.15,17.5-5.84-16.2,1-.32Zm.94,7.39-20.78-12.24a25.77,25.77,0,0,1,2.73-3.74Zm-17.81-16.27.63-.66,15.14,14.62ZM207,426.19l-15.82-8.11c.16-.31.33-.62.51-.92Zm5.52,3.25.1.06-.75-.18-22.52-6.87a26,26,0,0,1,1.66-4Zm-6.7-1.57-16.86-4.05c.09-.34.19-.67.28-1Zm6.67,3-22.37,9.37a25.78,25.78,0,0,1-1.37-4.45Zm-23.82,4.56c-.06-.3-.12-.6-.16-.9l20.94-3.42Zm18.12-1.77-16.09,7.89c-.15-.32-.29-.64-.43-1Zm5.77,1.25-7.81,19.74c-.29-.11-.57-.22-.85-.35Zm1.27-2.19v.57L209.53,456a25.94,25.94,0,0,1-4.49-1.26Zm-.59,5.78-2.25,17.77-1-.16Zm2-2.78v-.92l4.44,21.15c-.7.15-1.41.25-2.13.34Zm1.94,20.62c-.35,0-.69.06-1,.08l-.9-17.34Zm-1.33-20.46,5.48,19.67c-.42.12-.85.22-1.28.32Zm-.5-3.19,10.57,21.12a26.66,26.66,0,0,1-4.23,1.64Zm1.52,2.2L227,453.21l-.8.42ZM215.65,432l15.43,18.35a26.75,26.75,0,0,1-3.77,2.63Zm4.36,4.6,12.13,12.82-.77.69Zm-.25-4.48,19.46,6.23c-.13.42-.28.84-.44,1.25Zm-2.95-1.34,23.49,2.79a25.12,25.12,0,0,1-1,4.43Zm2.76-.05,20.86,1.56c0,.3-.05.6-.08.9Zm-3.09-.61,23.87-2.82a26.07,26.07,0,0,1,.17,2.94c0,.56,0,1.12-.06,1.67Zm16.78-18-11.95,11.12,11.14-11.93Zm-15.43-7.88-3.42,23.79-1.19-24c.36,0,.73,0,1.09,0A27.14,27.14,0,0,1,217.83,404.31Zm-18.69,4.62,13.61,19.44-17.08-16.5A27.1,27.1,0,0,1,199.14,408.93Zm-11,20.66,23.82.72-23.55,3.84a27.54,27.54,0,0,1-.28-3.87C188.11,430,188.12,429.81,188.12,429.59Zm6.08,17.46,18.18-15.12,1-.74,0,.06-15.58,19.38A25.66,25.66,0,0,1,194.2,447.05Zm17.11,9.25,2.47-19.49v19.66C213,456.45,212.13,456.4,211.31,456.3Zm3.86-10,.52,10.1-.52,0Zm17.25,2.86-16.51-17.45-.08-.09.65.42L235.3,446A27.77,27.77,0,0,1,232.42,449.2Z" transform="translate(-35.23 -196.49)"/><path class="cls-3" d="M237.43,445.49a1.28,1.28,0,1,0,1.28,1.28A1.28,1.28,0,0,0,237.43,445.49Z" transform="translate(-35.23 -196.49)"/><path class="cls-3" d="M233.06,450.21a1.28,1.28,0,1,0,1.28,1.28A1.28,1.28,0,0,0,233.06,450.21Z" transform="translate(-35.23 -196.49)"/><path class="cls-3" d="M221.17,456.48a1.28,1.28,0,1,0,1.27,1.28A1.28,1.28,0,0,0,221.17,456.48Z" transform="translate(-35.23 -196.49)"/><path class="cls-3" d="M191.66,445.84a1.28,1.28,0,1,0,1.28,1.28A1.28,1.28,0,0,0,191.66,445.84Z" transform="translate(-35.23 -196.49)"/><path class="cls-3" d="M196,450.56a1.28,1.28,0,1,0,1.28,1.27A1.28,1.28,0,0,0,196,450.56Z" transform="translate(-35.23 -196.49)"/><path class="cls-3" d="M201.68,454.34a1.28,1.28,0,1,0,1.28,1.28A1.28,1.28,0,0,0,201.68,454.34Z" transform="translate(-35.23 -196.49)"/><path class="cls-3" d="M207.93,456.82a1.28,1.28,0,0,0,0,2.56,1.28,1.28,0,0,0,0-2.56Z" transform="translate(-35.23 -196.49)"/><path class="cls-3" d="M208.85,403.78a1.28,1.28,0,1,0-1.28-1.27A1.28,1.28,0,0,0,208.85,403.78Z" transform="translate(-35.23 -196.49)"/><path class="cls-3" d="M203.11,405.43a1.28,1.28,0,1,0-1.28-1.28A1.28,1.28,0,0,0,203.11,405.43Z" transform="translate(-35.23 -196.49)"/><path class="cls-3" d="M197.87,408.23a1.28,1.28,0,1,0-1.28-1.28A1.28,1.28,0,0,0,197.87,408.23Z" transform="translate(-35.23 -196.49)"/><path class="cls-3" d="M194,411.62a1.29,1.29,0,1,0-1.28-1.29A1.28,1.28,0,0,0,194,411.62Z" transform="translate(-35.23 -196.49)"/><path class="cls-3" d="M190.41,416a1.28,1.28,0,1,0-1.28-1.28A1.28,1.28,0,0,0,190.41,416Z" transform="translate(-35.23 -196.49)"/><path class="cls-3" d="M187.73,421.46a1.28,1.28,0,1,0-1.28-1.28A1.28,1.28,0,0,0,187.73,421.46Z" transform="translate(-35.23 -196.49)"/><path class="cls-3" d="M187.28,426.14a1.28,1.28,0,1,0-1.28,1.28A1.29,1.29,0,0,0,187.28,426.14Z" transform="translate(-35.23 -196.49)"/><polygon class="cls-3" points="32.08 238.55 32.08 173.7 30.02 173.7 30.02 149.01 28.47 149.01 28.47 133.22 27.23 133.22 27.23 124.1 24.96 124.1 24.96 121.87 23.72 121.87 23.72 120.32 22.93 120.32 22.93 119.2 11.19 119.2 11.19 120.32 10.39 120.32 10.39 121.87 9.16 121.87 9.16 124.1 6.88 124.1 6.88 133.22 5.65 133.22 5.65 149.01 4.1 149.01 4.1 173.7 2.04 173.7 2.04 238.55 0 238.55 0 268.58 34.12 268.58 34.12 238.55 32.08 238.55"/><polygon class="cls-3" points="335.11 267.1 335.11 247.57 335.11 247.16 335.11 246.28 335.11 245.88 335.11 244.99 335.11 244.59 335.11 243.7 335.11 243.3 335.11 242.41 335.11 242.01 335.11 241.12 335.11 240.72 335.11 239.83 335.11 239.43 335.11 238.55 335.11 238.14 335.11 237.26 335.11 236.86 335.11 235.97 335.11 235.57 335.11 234.68 335.11 234.28 335.11 233.4 335.11 232.99 335.11 232.1 335.11 231.7 335.11 230.81 335.11 230.41 335.11 229.53 335.11 229.12 335.11 228.24 335.11 227.84 335.11 226.95 335.11 226.55 335.11 225.66 335.11 225.26 335.11 224.37 335.11 223.97 335.11 223.08 335.11 222.68 335.11 221.79 335.11 221.39 335.11 220.51 335.11 220.1 335.11 219.22 335.11 218.82 335.11 217.93 335.11 217.53 335.11 216.64 335.11 216.24 335.11 215.35 335.11 214.95 335.11 214.06 335.11 213.66 335.11 212.78 335.11 212.37 335.11 211.49 335.11 211.09 335.11 210.2 335.11 209.8 335.11 208.91 335.11 208.51 335.11 207.62 335.11 207.22 335.11 206.33 335.11 205.93 335.11 205.04 335.11 204.64 335.11 203.76 335.11 203.35 335.11 202.47 335.11 202.06 335.11 201.18 335.11 200.78 335.11 199.89 335.11 199.49 335.11 198.6 335.11 198.2 335.11 197.31 335.11 196.91 335.11 196.02 335.11 195.62 335.11 194.74 335.11 194.33 335.11 193.45 335.11 193.05 335.11 192.16 335.11 191.76 335.11 190.87 335.11 190.47 335.11 189.58 335.11 189.18 335.11 188.29 335.11 187.89 335.11 187 335.11 186.6 335.11 185.71 335.11 185.31 335.11 184.43 335.11 184.03 335.11 183.14 335.11 182.74 335.11 181.85 335.11 181.45 335.11 180.56 335.11 180.16 335.11 179.28 335.11 178.87 335.11 178.73 335.11 177.99 335.11 177.58 335.11 176.7 335.11 176.29 335.11 175.41 335.11 175.01 335.11 174.12 335.11 173.72 335.11 172.83 335.11 172.43 335.11 172.27 332.73 172.27 332.73 171.54 332.73 171.14 332.73 170.25 332.73 169.85 332.73 168.97 332.73 168.56 332.73 167.68 332.73 167.28 332.73 166.39 332.73 165.99 332.73 165.1 332.73 164.7 332.73 163.81 332.73 163.41 332.73 162.53 332.73 162.12 332.73 161.24 332.73 160.83 332.73 159.27 329.1 159.27 328.69 159.27 325.13 159.27 324.72 159.27 322.48 159.27 322.07 159.27 318.51 159.27 318.1 159.27 314.78 159.27 314.78 160.83 314.78 161.24 314.78 162.12 314.78 162.53 314.78 163.41 314.78 163.81 314.78 164.7 314.78 165.1 314.78 165.99 314.78 166.39 314.78 167.28 314.78 167.68 314.78 168.56 314.78 168.97 314.78 169.85 314.78 170.25 314.78 171.14 314.78 171.54 314.78 172.27 312.36 172.27 312.36 172.43 312.36 172.83 312.36 173.72 312.36 174.12 312.36 175.01 312.36 175.41 312.36 176.29 312.36 176.7 312.36 177.58 312.36 177.99 312.36 178.87 312.36 179.28 312.36 180.16 312.36 180.56 312.36 181.45 312.36 181.85 312.36 182.74 312.36 183.14 312.36 184.03 312.36 184.43 312.36 185.31 312.36 185.71 312.36 186.6 312.36 187 312.36 187.89 312.36 188.29 312.36 189.18 312.36 189.58 312.36 190.47 312.36 190.87 312.36 191.76 312.36 192.16 312.36 193.05 312.36 193.45 312.36 194.33 312.36 194.74 312.36 195.62 312.36 196.02 312.36 196.91 312.36 197.31 312.36 198.2 312.36 198.6 312.36 199.49 312.36 199.89 312.36 200.78 312.36 201.18 312.36 202.06 312.36 202.47 312.36 203.35 312.36 203.76 312.36 204.64 312.36 205.04 312.36 205.93 312.36 206.33 312.36 207.22 312.36 207.62 312.36 208.51 312.36 208.91 312.36 209.8 312.36 210.2 312.36 211.09 312.36 211.49 312.36 212.37 312.36 212.78 312.36 213.66 312.36 214.06 312.36 214.95 312.36 215.35 312.36 216.24 312.36 216.64 312.36 217.53 312.36 217.93 312.36 218.82 312.36 219.22 312.36 220.1 312.36 220.51 312.36 221.39 312.36 221.79 312.36 222.68 312.36 223.08 312.36 223.97 312.36 224.37 312.36 225.26 312.36 225.66 312.36 226.55 312.36 226.95 312.36 227.84 312.36 228.24 312.36 229.12 312.36 229.53 312.36 230.41 312.36 230.81 312.36 231.7 312.36 232.1 312.36 232.99 312.36 233.4 312.36 234.28 312.36 234.68 312.36 235.57 312.36 235.97 312.36 236.86 312.36 237.26 312.36 238.14 312.36 238.55 312.36 239.43 312.36 239.83 312.36 240.72 312.36 241.12 312.36 242.01 312.36 242.41 312.36 243.3 312.36 243.7 312.36 244.59 312.36 244.99 312.36 245.88 312.36 246.28 312.36 247.16 312.36 247.57 312.36 267.75 312.38 267.75 316.1 267.75 316.42 267.75 316.51 267.75 316.85 267.75 320.07 267.75 320.48 267.75 323.37 267.75 323.66 267.75 323.79 267.75 327.01 267.75 327.42 267.75 330.31 267.75 330.65 267.75 330.73 267.75 331.06 267.75 335.11 267.75 335.13 267.75 335.11 267.1"/><polygon class="cls-3" points="246.07 266.03 246.07 246.58 246.07 244.36 245.57 244.36 245.57 233.1 244.92 233.1 244.74 232.94 244.74 231.96 243.68 231.96 243.68 231.23 243.68 230.26 243.68 229.35 243.68 228.38 243.68 227.47 243.68 226.5 243.68 225.59 243.68 224.62 243.68 223.71 243.68 222.74 243.68 221.83 243.68 220.86 243.68 219.95 243.68 218.99 243.68 218.07 243.68 217.11 243.68 216.19 243.68 215.23 243.68 214.32 243.68 213.35 243.68 212.44 243.68 211.47 243.68 210.56 243.68 209.59 243.68 208.68 243.68 207.71 243.68 206.8 243.68 205.83 243.68 204.92 243.68 203.95 243.68 203.04 243.68 202.08 243.68 201.17 243.68 200.2 243.68 199.29 243.68 198.32 243.68 197.41 243.68 196.44 243.68 195.53 243.68 194.56 243.68 193.66 243.68 192.68 243.68 191.77 243.68 190.8 243.68 189.89 243.68 188.92 243.68 188.01 243.68 187.04 243.68 186.13 243.68 185.17 243.68 184.25 243.68 183.29 243.68 182.38 243.68 181.49 243.68 181.41 243.68 180.5 243.68 179.75 243.68 179.75 243.68 179.24 243.68 178.32 243.68 177.66 243.68 176.74 243.68 175.95 243.68 175.04 243.68 174.93 243.68 174.64 243.68 174.46 243.68 174.18 243.68 173.99 243.68 173.7 243.68 173.52 243.68 173.23 243.68 173.05 243.68 172.76 243.68 172.58 243.68 172.29 243.68 172.12 243.68 171.83 243.68 171.64 243.68 171.36 243.68 171.17 243.68 170.88 243.68 170.71 243.68 170.42 243.68 170.23 243.68 170.18 243.68 169.94 243.68 169.76 243.68 169.48 243.68 169.29 243.68 169 243.68 168.82 243.68 168.54 243.68 168.46 241.83 168.46 241.81 168.45 241.81 168.16 241.81 167.97 241.81 167.69 241.81 167.51 241.81 167.22 241.81 167.05 240.93 167.05 240.93 166.63 240.93 166.54 241.81 166.54 241.81 166.23 241.81 165.92 240.93 165.92 240.93 165.1 239.29 165.1 239.29 164.72 237.15 164.72 237.15 164.33 237.15 162.8 235.51 162.8 235.51 162.76 235.51 162.51 235.51 161.83 235.51 161.57 235.51 160.89 235.51 160.64 235.51 160.07 234.52 160.07 232.3 158.8 232.3 158.36 232.41 158.36 232.41 158.09 232.3 158.09 232.3 157.88 232.41 157.88 232.41 157.63 232.3 157.63 232.3 157.41 232.41 157.41 232.41 157.15 232.3 157.15 232.3 156.94 232.41 156.94 232.41 156.68 232.3 156.68 232.3 156.47 232.41 156.47 232.41 156.21 232.3 156.21 232.3 156 232.41 156 232.41 155.75 232.3 155.75 232.3 155.54 232.41 155.54 232.41 155.27 232.3 155.27 232.3 155.07 232.41 155.07 232.41 154.8 232.3 154.8 232.3 154.41 231.56 154.41 231.56 154.8 231.44 154.8 231.44 155.07 231.56 155.07 231.56 155.27 231.44 155.27 231.44 155.54 231.56 155.54 231.56 155.75 231.44 155.75 231.44 156 231.56 156 231.56 156.21 231.44 156.21 231.44 156.47 231.56 156.47 231.56 156.68 231.44 156.68 231.44 156.94 231.56 156.94 231.56 157.15 231.44 157.15 231.44 157.41 231.56 157.41 231.56 157.63 231.44 157.63 231.44 157.88 231.56 157.88 231.56 158.09 231.44 158.09 231.44 158.36 231.56 158.36 231.56 158.8 229.34 160.07 228.35 160.07 228.35 160.64 228.35 160.89 228.35 161.57 228.35 161.83 228.35 162.51 228.35 162.76 228.35 162.8 226.71 162.8 226.71 164.72 224.57 164.72 224.57 165.1 222.93 165.1 222.93 165.92 222.05 165.92 222.05 166.23 222.05 166.54 222.93 166.54 222.93 167.05 222.05 167.05 222.05 167.22 222.05 167.51 222.05 167.69 222.05 167.97 222.05 168.16 222.05 168.45 222.05 168.46 220.18 168.46 220.18 168.53 220.18 168.82 220.18 169 220.18 169.29 220.18 169.47 220.18 169.76 220.18 169.94 220.18 170.23 220.18 170.41 220.18 170.7 220.18 170.88 220.18 171.17 220.18 171.35 220.18 171.64 220.18 171.82 220.18 172.11 220.18 172.29 220.18 172.58 220.18 172.76 220.18 173.05 220.18 173.23 220.18 173.52 220.18 173.7 220.18 173.99 220.18 174.17 220.18 174.46 220.18 174.64 220.18 174.93 220.18 175.04 220.18 175.95 220.18 176.74 220.18 177.66 220.18 178.32 220.18 179.24 220.18 179.75 220.18 179.75 220.18 180.5 220.18 181.41 220.18 182.38 220.18 183.29 220.18 184.25 220.18 185.17 220.18 186.13 220.18 187.04 220.18 188.01 220.18 188.92 220.18 189.89 220.18 190.8 220.18 191.77 220.18 192.68 220.18 193.66 220.18 194.56 220.18 195.53 220.18 196.44 220.18 197.41 220.18 198.32 220.18 199.29 220.18 200.2 220.18 201.17 220.18 202.08 220.18 203.04 220.18 203.95 220.18 204.92 220.18 205.83 220.18 206.8 220.18 207.71 220.18 208.68 220.18 209.59 220.18 210.56 220.18 211.47 220.18 212.44 220.18 213.35 220.18 214.32 220.18 215.23 220.18 216.19 220.18 217.11 220.18 218.07 220.18 218.99 220.18 219.95 220.18 220.86 220.18 221.83 220.18 222.74 220.18 223.71 220.18 224.62 220.18 225.59 220.18 226.5 220.18 227.47 220.18 228.38 220.18 229.35 220.18 230.26 220.18 231.23 220.18 231.96 219.13 231.96 219.13 233.1 218.23 233.1 218.23 244.36 217.12 244.36 217.12 266.03 216.92 266.03 216.92 267.79 217.35 267.79 217.35 266.42 218.28 266.42 218.28 267.79 219.86 267.79 220.69 267.79 223.35 267.79 224.53 267.79 227.19 267.79 228.38 267.79 231.04 267.79 232.23 267.79 234.88 267.79 236.07 267.79 238.73 267.79 239.92 267.79 242.57 267.79 243.33 267.79 244.92 267.79 245.84 267.79 246.26 267.79 246.26 266.03 246.07 266.03"/><polygon class="cls-3" points="308.25 263.9 308.25 263.51 308.25 262.47 308.25 262.1 308.25 261.06 308.25 260.68 308.25 259.64 308.25 259.26 308.25 258.22 308.25 257.85 308.25 256.81 308.25 256.43 308.25 255.39 308.25 255.01 308.25 253.98 308.25 253.59 308.25 252.56 308.25 252.18 308.25 251.14 308.25 250.76 308.25 249.73 308.25 249.34 308.25 248.31 308.25 247.93 308.25 246.89 308.25 246.51 308.25 245.48 308.25 245.1 308.25 244.06 308.25 243.68 308.25 242.65 308.25 242.26 308.25 241.22 308.25 240.85 308.25 239.81 308.25 239.43 308.25 238.39 308.25 238.01 308.25 236.97 308.25 236.6 308.25 235.56 308.25 235.18 308.25 234.14 308.25 233.77 308.25 232.72 308.25 232.35 308.25 231.31 308.25 230.93 308.25 229.9 308.25 229.51 308.25 228.48 308.25 228.1 308.25 227.06 308.25 226.68 308.25 225.65 308.25 225.26 308.25 224.23 308.25 223.85 308.25 222.81 308.25 222.43 308.25 221.39 308.25 221.01 308.25 219.98 308.25 219.6 308.25 218.56 308.25 218.18 308.25 217.15 308.25 216.76 308.25 215.73 308.25 215.35 308.25 214.31 308.25 213.93 308.25 212.9 308.25 212.51 308.25 211.48 308.25 211.1 308.25 210.06 308.25 209.68 308.25 208.65 308.25 208.26 308.25 207.23 308.25 206.85 308.25 205.81 308.25 205.43 308.25 204.4 308.25 204.02 308.25 202.98 308.25 202.6 308.25 201.56 308.25 201.18 308.25 200.15 308.25 199.76 308.25 198.73 308.25 198.35 308.25 197.31 308.25 196.93 308.25 195.9 308.25 195.51 308.25 194.48 308.25 194.1 308.25 193.06 308.25 192.68 308.25 191.65 308.25 191.26 308.25 190.23 308.25 189.85 308.25 188.81 308.25 188.43 308.25 187.4 308.25 187.01 308.25 185.98 308.25 185.6 308.25 185.21 308.25 184.56 307.01 184.56 307.01 183.94 301.74 179.16 301.58 179.16 296.31 183.94 296.31 184.56 295.08 184.56 295.08 185.21 295.08 185.6 295.08 185.98 295.08 187.01 295.08 187.4 295.08 188.43 295.08 188.81 295.08 189.85 295.08 190.23 295.08 191.26 295.08 191.65 295.08 192.68 295.08 193.06 295.08 194.1 295.08 194.48 295.08 195.51 295.08 195.9 295.08 196.93 295.08 197.31 295.08 198.35 295.08 198.73 295.08 199.76 295.08 200.15 295.08 201.18 295.08 201.56 295.08 202.6 295.08 202.98 295.08 204.02 295.08 204.4 295.08 205.43 295.08 205.81 295.08 206.85 295.08 207.23 295.08 208.26 295.08 208.65 295.08 209.68 295.08 210.06 295.08 211.1 295.08 211.48 295.08 212.51 295.08 212.9 295.08 213.93 295.08 214.31 295.08 215.35 295.08 215.73 295.08 216.76 295.08 217.15 295.08 218.18 295.08 218.56 295.08 219.6 295.08 219.98 295.08 221.01 295.08 221.39 295.08 222.43 295.08 222.81 295.08 223.85 295.08 224.23 295.08 225.26 295.08 225.65 295.08 226.68 295.08 227.06 295.08 228.1 295.08 228.48 295.08 229.51 295.08 229.9 295.08 230.93 295.08 231.31 295.08 232.35 295.08 232.72 295.08 233.77 295.08 234.14 295.08 235.18 295.08 235.56 295.08 236.6 295.08 236.97 295.08 238.01 295.08 238.39 295.08 239.43 295.08 239.81 295.08 240.85 295.08 241.22 295.08 242.26 295.08 242.65 295.08 243.68 295.08 244.06 295.08 245.1 295.08 245.48 295.08 246.51 295.08 246.89 295.08 247.93 295.08 248.31 295.08 249.34 295.08 249.73 295.08 250.76 295.08 251.14 295.08 252.18 295.08 252.56 295.08 253.59 295.08 253.98 295.08 255.01 295.08 255.39 295.08 256.43 295.08 256.81 295.08 257.85 295.08 258.22 295.08 259.26 295.08 259.64 295.08 260.68 295.08 261.06 295.08 262.1 295.08 262.47 295.08 263.51 295.08 263.9 292.87 263.9 292.87 264.93 292.87 265.31 292.87 266.35 292.87 266.72 292.87 267.76 292.87 268.22 295.08 268.22 295.08 268.22 308.25 268.22 308.25 268.22 314.79 268.22 314.79 267.76 314.79 266.72 314.79 266.35 314.79 265.31 314.79 264.93 314.79 263.9 308.25 263.9"/><polygon class="cls-4" points="427.79 65.75 427.79 64.92 426.84 64.92 421.06 51.87 421.06 51.81 419.85 51.81 414.33 39.33 414.33 39.08 414.22 39.08 414.22 39.07 413.08 39.07 407.44 26.32 405.47 26.32 405.47 25.69 404.55 25.69 404.55 25.06 403.86 25.06 403.86 20.45 401.35 18.5 401.35 13.43 399.48 11.69 399.48 0.59 398.85 0.01 398.85 0 398.84 0.01 398.84 0 398.84 0.01 398.2 0.59 398.2 11.69 396.33 13.43 396.33 18.5 393.82 20.45 393.82 25.06 393.13 25.06 393.13 25.69 392.21 25.69 392.21 26.32 390.47 26.32 384.82 39.07 383.7 39.07 378.06 51.81 376.99 51.81 376.99 51.82 371.19 64.92 370.07 64.92 370.07 65.75 369.39 65.75 369.39 66.58 369.92 66.58 370.23 67.31 370.23 67.31 371.09 69.32 370.28 69.32 370.28 70.16 371.09 70.16 371.09 70.94 371.09 71.56 371.09 73.73 371.09 75.63 371.09 78.42 371.09 80.33 371.09 83.12 371.09 85.03 371.09 87.81 371.09 89.72 371.09 92.51 371.09 92.75 371.09 92.85 371.09 94.42 371.09 97.21 371.09 99.11 371.09 101.9 371.09 103.81 371.09 106.6 371.09 108.5 371.09 111.3 371.09 113.2 371.09 115.99 371.09 117.9 371.09 120.69 371.09 122.59 371.09 125.38 371.09 127.68 371.09 129.78 371.09 132.28 371.09 134.48 371.09 136.97 371.09 139.18 371.09 141.67 371.09 143.87 371.09 146.37 371.09 148.57 371.09 151.06 371.09 153.26 371.09 155.76 371.09 157.96 371.09 160.46 371.09 162.66 371.09 165.15 371.09 167.35 371.09 169.85 371.09 172.05 371.09 174.54 371.09 176.74 371.09 179.24 371.09 181.44 371.09 183.93 371.09 186.13 371.09 188.63 371.09 190.83 371.09 193.33 371.09 195.53 371.09 198.02 371.09 200.22 371.09 202.72 371.09 204.92 371.09 207.41 371.09 209.62 371.09 212.11 371.09 214.31 371.09 216.81 371.09 219.01 371.09 221.5 371.09 223.7 371.09 226.19 371.09 228.4 371.09 230.89 371.09 233.1 371.09 235.59 371.09 237.79 371.09 240.28 371.09 242.49 371.09 244.98 371.09 247.18 371.09 249.68 371.09 251.88 371.09 254.37 371.09 257.99 369.99 257.99 369.99 269.29 371.09 269.29 371.76 269.29 373.19 269.29 376.4 269.29 377.22 269.29 377.78 269.29 378.65 269.29 379.89 269.29 380.71 269.29 382.22 269.29 383.04 269.29 384.55 269.29 385.37 269.29 386.83 269.29 388.55 269.29 389.2 269.29 390.03 269.29 391.53 269.29 392.36 269.29 393.86 269.29 394.69 269.29 396.19 269.29 397.01 269.29 398.52 269.29 399.34 269.29 400.84 269.29 401.67 269.29 403.18 269.29 404 269.29 405.5 269.29 406.33 269.29 407.83 269.29 408.65 269.29 409.31 269.29 412.49 269.29 413.31 269.29 414.81 269.29 415.64 269.29 417.14 269.29 417.97 269.29 417.99 269.29 419.22 269.29 420.1 269.29 420.22 269.29 421.05 269.29 424.68 269.29 426.24 269.29 426.77 269.29 427.88 269.29 427.89 269.29 427.89 257.99 427.88 257.99 426.77 257.99 426.77 127.68 426.77 125.38 426.77 122.59 426.77 120.69 426.77 117.9 426.77 115.99 426.77 113.2 426.77 111.3 426.77 108.5 426.77 106.6 426.77 103.81 426.77 101.9 426.77 99.11 426.77 97.21 426.77 94.42 426.77 92.85 426.77 92.75 426.77 92.51 426.77 89.72 426.77 87.81 426.77 85.03 426.77 83.12 426.77 80.33 426.77 78.42 426.77 75.63 426.77 73.73 426.77 71.56 426.77 70.94 426.77 70.16 427.57 70.16 427.57 69.32 426.77 69.32 427.63 67.31 427.63 67.31 427.94 66.58 428.47 66.58 428.47 65.75 427.79 65.75"/><path class="cls-4" d="M155.66,273h-4.28v-5.44h-1a2.65,2.65,0,0,0-2.59-2.69,1.75,1.75,0,0,0-.32,0v-1H146v-1h-3.06v-6.84H146v-1.68h1.5v-2.16H125.61v2.16h1.5v1.68h3.07V263h-3.07v1h-1.5v.94a2.6,2.6,0,0,0-2.31,1.5h-7.41v0a2.57,2.57,0,0,0-2.32-1.52,1.75,1.75,0,0,0-.32,0v-1h-1.5v-1h-3.06v-6.84h3.06v-1.68h1.5v-2.16H91.36v2.16h1.5v1.68h3.06V263H92.86v1h-1.5v.94a2.65,2.65,0,0,0-2.59,2.69h-1V273H83.18V430.39H78.43v36.2H94.56v-.38h22.56v.2h4.94v-.2h29.32v.2l1.89-.2H156V273ZM98,256.13h1.51V263H98Zm3.61,0h1.51V263h-1.51Zm3.61,0h1.35V263h-1.35Zm27,0h1.51V263h-1.51Zm3.61,0h1.51V263h-1.51Zm3.61,0h1.35V263h-1.35Z" transform="translate(-35.23 -196.49)"/><path class="cls-4" d="M594.73,444h-1.57V280.28h-.86v.9h-.52v-.87h-.26v-1h-.35v1h-.26v.87h-4.09v-.87h-.25v-1h-.36v1H586v.87h-.27V271.12h-1.85v-2.68h0l-11-20.86V247H569v-1.22h-.13v-2.17H569v-1.23h-.58v-.76H568v-2h-1.34v2h-.51v.76h-.53v1.23h.16v2.17h-.16V247h-3.53v.44l-11.14,21.07v2.66h-2v9.16h-.25v.9H544.4v-.9h-.26v-.94h-.35v.94h-.25v.9h-.93v-.9h-.87V283h-.26V444h-2.09v21.76h1v0h22v0H573v0h3.35v0h.86v0h3.48v0h.87v0H586v0h.87v0h4.09v0h.87v0h2.45v0h1V444ZM567.1,243.6h.45v2.13h-.45Z" transform="translate(-35.23 -196.49)"/><path class="cls-4" d="M332.72,390.87H331v-51.7h-1.88V266.6h-2.42v-2.24h-2.36v-.66h0v-.21h0v-.92h.38v-.89H317.1v-.9h0V260h0v-1.08h0v-.77h0v-1.07h0v-.77h0v-1.08h0v-.77h0v-1.08h0v-.77h0v-1.3h.43v-.89h-4.06v-.73h0v-.77h0v-1.08h0v-.77h0V246h0v-.77h0v-1.08h0v-.29h.26V243h-6.24v-.51h0v-1.08h0v-.77h0v-1.07h0v-.77h0V237.7h0v-.77h0v-1.08h0v-.77h0V234h0v-.77h0v-.31h.18V232h-11.9v.89H296v10h-6.24v.88H290v6.58h-4.11v.88h.45v.93h0v9.42H278.4v.89h.67v1.79h-2.33v2.24h-2.46v72.57h-1.87v51.7h-1.82v74.92h62.25V390.87ZM275.16,272.78h1.58v.85h-1.58Zm50.69.85h-1.48v-.7h0v-.15h1.48Zm-46.78-.7v.7h-1.45v-.85h1.45Zm46.78-1.59h-1.48v-.92h1.48Zm-46.78-.25v.25h-1.45v-.92h1.45Zm46.78-2.78h-1.48v-.15h0v-1.68h1.48Zm-46.78-1.83v1.83h-1.45v-1.83Zm-3.91,2.23h1.58v1.83h-1.58Z" transform="translate(-35.23 -196.49)"/><polygon class="cls-4" points="221.51 175.49 221.51 175.47 220.19 175.47 220.19 173.16 220.19 171.19 220.19 169.09 220.19 167.13 220.19 165.03 220.19 163.06 220.19 160.96 220.19 158.99 220.19 156.9 220.19 154.93 220.19 152.83 220.19 150.86 220.19 149.68 219.82 149.68 219.07 149.68 218.02 149.68 216.23 149.68 215.48 149.68 214.43 149.68 212.64 149.68 211.88 149.68 210.84 149.68 209.05 149.68 208.29 149.68 207.24 149.68 205.45 149.68 204.7 149.68 203.65 149.68 201.86 149.68 201.11 149.68 200.06 149.68 198.27 149.68 197.51 149.68 196.47 149.68 194.68 149.68 193.92 149.68 192.87 149.68 191.96 149.68 191.51 149.68 191.08 149.68 190.33 149.68 189.28 149.68 188.89 149.68 188.45 149.68 188.16 149.68 188.16 150.86 188.16 152.83 188.16 154.93 188.16 156.9 188.16 158.99 188.16 160.96 188.16 163.06 188.16 165.03 188.16 167.13 188.16 169.09 188.16 171.19 188.16 173.16 188.16 175.47 187.63 175.47 186.84 175.47 186.84 175.49 186.59 175.49 186.59 177.09 186.59 177.46 186.59 179.56 186.59 181.53 186.59 183.62 186.59 185.59 186.59 187.69 186.59 189.66 186.59 191.75 186.59 193.72 186.59 195.82 186.59 197.79 186.59 199.89 186.59 201.86 186.59 203.95 186.59 205.92 186.59 208.02 186.59 209.99 186.59 212.09 186.59 214.06 186.59 216.15 186.59 218.12 186.59 220.22 186.59 222.19 186.59 224.28 186.59 226.25 186.59 228.35 186.59 230.32 186.59 232.42 186.59 234.39 186.59 236.48 186.59 238.45 186.59 240.55 186.59 242.52 186.59 244.61 186.59 246.58 186.59 248.68 186.59 250.65 186.59 252.75 186.59 254.72 186.59 256.81 186.59 258.78 186.59 260.88 186.59 262.16 179.2 262.16 179.2 269.25 186.59 269.25 187.63 269.25 188.39 269.25 189.28 269.25 190.33 269.25 191.08 269.25 192.87 269.25 193.92 269.25 194.68 269.25 196.47 269.25 197.51 269.25 198.27 269.25 200.06 269.25 201.11 269.25 201.86 269.25 203.65 269.25 204.7 269.25 205.45 269.25 207.24 269.25 208.29 269.25 209.05 269.25 210.84 269.25 211.88 269.25 214.43 269.25 215.48 269.25 216.23 269.25 218.02 269.25 219.07 269.25 219.82 269.25 220.72 269.25 221.51 269.25 221.76 269.25 221.76 262.16 221.76 260.88 221.76 258.78 221.76 256.81 221.76 254.72 221.76 252.75 221.76 250.65 221.76 248.68 221.76 246.58 221.76 244.61 221.76 242.52 221.76 240.55 221.76 238.45 221.76 236.48 221.76 234.39 221.76 232.42 221.76 230.32 221.76 228.35 221.76 226.25 221.76 224.28 221.76 222.19 221.76 220.22 221.76 218.12 221.76 216.15 221.76 214.06 221.76 212.09 221.76 209.99 221.76 208.02 221.76 205.92 221.76 203.95 221.76 201.86 221.76 199.89 221.76 197.79 221.76 195.82 221.76 193.72 221.76 191.75 221.76 189.66 221.76 187.69 221.76 185.59 221.76 183.62 221.76 181.53 221.76 179.56 221.76 177.46 221.76 177.09 221.76 175.49 221.51 175.49"/><path class="cls-4" d="M382.38,337.14v-.07h-.09l-3.89-3.55v-.09h-.1l-.66-.6-2.43-2.2h0l-14.33-12.82-.14-.16h0l-3.46-3.1-.11-.13s-.55-.51-.82-.51h-.43a.51.51,0,0,0-.5.51c0,.06,0,.11.07.17V465.82h12.89v.06h5.33v-.06h10.42v.06h5.33v-.06h10.87V353.43ZM369,330.63l-4.77-7.49,6.57,7.49Zm-1.31,0h-1.8l-3-7.49Zm6.21,0h-1.79l-6.48-7.4Zm-14.51-13h0L356.73,323V315.3ZM356.73,325l3.1-6.26,4.72,11.89h-7.82Z" transform="translate(-35.23 -196.49)"/><polygon class="cls-4" points="481.2 248.03 481.2 248.01 481.21 248.01 481.21 196.12 482.65 196.12 482.65 194.03 481.21 194.03 481.21 181.82 481.2 181.82 479.84 181.82 479.74 181.82 479.74 119.28 478.71 119.28 477.83 119.28 477.37 119.28 477.37 119.28 476.59 119.28 476.59 85.02 476.59 79.6 476.39 79.6 475.66 79.6 472.48 75.79 472.47 75.79 458.18 58.71 440.7 79.6 439.94 79.6 439.94 85.02 439.94 119.28 439.26 119.28 438.91 119.28 438.7 119.28 437.87 119.28 436.79 119.28 436.79 181.82 436.7 181.82 435.34 181.82 435.34 194.03 434.01 194.03 434.01 196.12 435.34 196.12 435.34 198.22 435.34 199.47 435.34 201.02 435.34 202.85 435.34 204.41 435.34 206.24 435.34 207.79 435.34 209.63 435.34 211.18 435.34 213.02 435.34 214.57 435.34 216.41 435.34 217.96 435.34 219.79 435.34 221.35 435.34 223.19 435.34 224.74 435.34 226.57 435.34 228.13 435.34 229.96 435.34 231.51 435.34 233.35 435.34 234.9 435.34 236.74 435.34 238.29 435.34 240.13 435.34 241.68 435.34 243.51 435.34 245.07 435.34 246.9 435.34 248.03 432.56 248.03 432.56 262.9 432.56 264.34 432.56 265.11 432.56 268.93 436.7 268.93 436.79 268.93 436.79 269.49 452.91 269.49 454.62 269.49 455.24 269.49 457.61 269.49 458.23 269.49 460.59 269.49 461.22 269.49 462.95 269.49 479.74 269.49 479.74 268.93 483.52 268.93 483.52 265.11 483.52 264.34 483.52 262.9 483.52 248.03 481.2 248.03"/><path class="cls-3" d="M414.69,465.46a25.46,25.46,0,0,0-50.86,0Z" transform="translate(-35.23 -196.49)"/><polygon class="cls-4" points="612.73 99.31 612.73 97.48 570.11 97.48 570.11 99.31 563.9 99.31 563.9 269.25 570.11 269.25 571.49 269.25 611.64 269.25 612.73 269.25 612.73 269.47 619.23 269.47 619.23 269.25 619.23 107.87 619.23 99.31 612.73 99.31"/><polygon class="cls-5" points="162.47 165.06 162.11 165.06 112.43 165.06 111.43 165.06 111.15 165.06 111.15 167.51 111.15 168.19 111.15 169.85 111.15 170.53 111.15 172.19 111.15 172.88 111.15 174.53 111.15 175.22 111.15 176.87 111.15 177.55 111.15 179.21 111.15 179.89 111.15 181.55 111.15 182.23 111.15 183.89 111.15 184.57 111.15 185.35 111.15 186.23 111.15 186.91 111.15 188.57 111.15 189.25 111.15 190.91 111.15 191.59 111.15 193.25 111.15 193.93 111.15 195.59 111.15 196.27 111.15 197.93 111.15 198.61 111.15 200.26 111.15 200.95 111.15 202.61 111.15 203.29 111.15 204.95 111.15 205.63 111.15 207.29 111.15 207.97 111.15 209.63 111.15 210.31 111.15 211.97 111.15 212.65 111.15 214.31 111.15 214.99 111.15 216.64 111.15 217.32 111.15 218.98 111.15 219.67 111.15 221.32 111.15 222.01 111.15 223.66 111.15 224.35 111.15 226 111.15 226.69 111.15 228.34 111.15 229.03 111.15 230.68 111.15 231.37 111.15 233.02 111.15 233.71 111.15 235.36 111.15 236.04 111.15 237.7 111.15 238.38 111.15 240.04 111.15 240.72 111.15 242.38 111.15 243.06 111.15 244.72 111.15 245.41 111.15 247.06 111.15 247.75 111.15 249.4 111.15 250.08 111.15 251.74 111.15 252.42 111.15 254.08 111.15 254.76 111.15 256.42 111.15 257.1 111.15 258.76 111.15 259.44 111.15 261.1 111.15 261.78 111.15 263.44 111.15 264.12 111.15 265.78 111.15 266.46 111.15 268.12 111.15 268.8 111.15 270.46 111.15 271.14 111.15 271.24 112.29 271.24 112.29 271.25 112.93 271.25 112.93 271.24 114.48 271.24 114.48 271.25 115.12 271.25 115.12 271.24 116.67 271.24 116.67 271.25 117.31 271.25 117.31 271.24 118.85 271.24 118.85 271.25 119.49 271.25 119.49 271.24 121.04 271.24 121.04 271.25 121.68 271.25 121.68 271.24 123.23 271.24 123.23 271.25 123.87 271.25 123.87 271.24 125.42 271.24 125.42 271.25 126.06 271.25 126.06 271.24 127.61 271.24 127.61 271.25 128.25 271.25 128.25 271.24 129.79 271.24 129.79 271.25 130.43 271.25 130.43 271.24 131.98 271.24 131.98 271.25 132.62 271.25 132.62 271.24 134.17 271.24 134.17 271.25 134.81 271.25 134.81 271.24 136.36 271.24 136.36 271.25 137 271.25 137 271.24 137.13 271.24 138.54 271.24 138.54 271.25 139.18 271.25 139.18 271.24 140.73 271.24 140.73 271.25 141.37 271.25 141.37 271.24 142.92 271.24 142.92 271.25 143.56 271.25 143.56 271.24 145.11 271.24 145.11 271.25 145.75 271.25 145.75 271.24 147.3 271.24 147.3 271.25 147.93 271.25 147.93 271.24 149.48 271.24 149.48 271.25 150.12 271.25 150.12 271.24 151.67 271.24 151.67 271.25 152.31 271.25 152.31 271.24 153.86 271.24 153.86 271.25 154.5 271.25 154.5 271.24 156.05 271.24 156.05 271.25 156.69 271.25 156.69 271.24 158.24 271.24 158.24 271.25 158.87 271.25 158.87 271.24 160.42 271.24 160.42 271.25 161.06 271.25 161.06 271.24 162.47 271.24 162.47 271.25 163.11 271.25 163.11 271.24 163.11 271.14 163.11 270.46 163.11 268.8 163.11 268.12 163.11 266.46 163.11 265.78 163.11 264.12 163.11 263.44 163.11 261.78 163.11 261.1 163.11 259.44 163.11 258.76 163.11 257.1 163.11 256.42 163.11 254.76 163.11 254.08 163.11 252.42 163.11 251.74 163.11 250.08 163.11 249.4 163.11 247.75 163.11 247.06 163.11 245.41 163.11 244.72 163.11 243.06 163.11 242.38 163.11 240.72 163.11 240.04 163.11 238.38 163.11 237.7 163.11 236.04 163.11 235.36 163.11 233.71 163.11 233.02 163.11 231.37 163.11 230.68 163.11 229.03 163.11 228.34 163.11 226.69 163.11 226 163.11 224.35 163.11 223.66 163.11 222.01 163.11 221.32 163.11 219.67 163.11 218.98 163.11 217.32 163.11 216.64 163.11 214.99 163.11 214.31 163.11 212.65 163.11 211.97 163.11 210.31 163.11 209.63 163.11 207.97 163.11 207.29 163.11 205.63 163.11 204.95 163.11 203.29 163.11 202.61 163.11 200.95 163.11 200.26 163.11 198.61 163.11 197.93 163.11 196.27 163.11 195.59 163.11 193.93 163.11 193.25 163.11 191.59 163.11 190.91 163.11 189.25 163.11 188.57 163.11 186.91 163.11 186.23 163.11 185.35 163.11 184.57 163.11 183.89 163.11 182.23 163.11 181.55 163.11 179.89 163.11 179.21 163.11 177.55 163.11 176.87 163.11 175.22 163.11 174.53 163.11 172.88 163.11 172.19 163.11 170.53 163.11 169.85 163.11 168.19 163.11 167.51 163.11 165.06 162.47 165.06"/><polygon class="cls-5" points="57.95 156.2 57.59 156.2 57.52 156.2 57.52 155.45 50.77 155.45 50.77 151.41 25.58 151.41 25.58 155.45 18.75 155.45 18.75 156.2 18.25 156.2 18.22 156.2 18.22 270.78 18.25 270.78 18.75 270.78 19.91 270.78 19.91 270.84 20.26 270.84 20.26 270.78 20.57 270.78 21.11 270.78 21.79 270.78 21.79 270.84 22.15 270.84 22.15 270.78 22.45 270.78 22.99 270.78 23.68 270.78 23.68 270.84 24.03 270.84 24.03 270.78 24.34 270.78 24.87 270.78 25.56 270.78 25.56 270.84 25.91 270.84 25.91 270.78 26.22 270.78 26.76 270.78 27.45 270.78 27.45 270.84 27.8 270.84 27.8 270.78 28.11 270.78 28.64 270.78 29.33 270.78 29.33 270.84 29.68 270.84 29.68 270.78 29.99 270.78 30.52 270.78 31.21 270.78 31.21 270.84 31.57 270.84 31.57 270.78 31.95 270.78 31.95 270.84 32.3 270.84 32.3 270.78 33.1 270.78 33.1 270.84 33.45 270.84 33.45 270.78 33.84 270.78 33.84 270.84 34.19 270.84 34.19 270.78 34.98 270.78 34.98 270.84 35.34 270.84 35.34 270.78 35.72 270.78 35.72 270.84 36.07 270.84 36.07 270.78 36.87 270.78 36.87 270.84 37.22 270.84 37.22 270.78 37.6 270.78 37.6 270.84 37.96 270.84 37.96 270.78 38.75 270.78 38.75 270.84 39.1 270.84 39.1 270.78 39.49 270.78 39.49 270.84 39.84 270.84 39.84 270.78 40.64 270.78 40.64 270.84 40.99 270.84 40.99 270.78 41.37 270.78 41.37 270.84 41.73 270.84 41.73 270.78 42.52 270.78 42.52 270.84 42.87 270.84 42.87 270.78 43.26 270.78 43.26 270.84 43.61 270.84 43.61 270.78 44.4 270.78 44.4 270.84 44.76 270.84 44.76 270.78 45.14 270.78 45.14 270.84 45.49 270.84 45.49 270.78 45.68 270.78 46.22 270.78 46.29 270.78 46.29 270.84 46.64 270.84 46.64 270.78 47.57 270.78 48.1 270.78 48.17 270.78 48.17 270.84 48.53 270.84 48.53 270.78 49.45 270.78 49.98 270.78 50.06 270.78 50.06 270.84 50.41 270.84 50.41 270.78 51.33 270.78 51.87 270.78 51.94 270.78 51.94 270.84 52.29 270.84 52.29 270.78 53.22 270.78 53.75 270.78 53.83 270.78 53.83 270.84 54.18 270.84 54.18 270.78 55.1 270.78 55.64 270.78 55.71 270.78 55.71 270.84 56.06 270.84 56.06 270.78 56.87 270.78 56.87 270.84 57.4 270.84 57.4 270.78 57.52 270.78 57.59 270.78 57.59 270.84 57.95 270.84 57.95 270.78 58.1 270.78 58.1 270.16 58.1 269.59 58.1 267.88 58.1 267.31 58.1 265.61 58.1 265.04 58.1 263.33 58.1 262.76 58.1 261.05 58.1 260.49 58.1 258.78 58.1 258.2 58.1 256.5 58.1 255.93 58.1 254.23 58.1 253.66 58.1 251.95 58.1 251.38 58.1 249.67 58.1 249.1 58.1 247.4 58.1 246.83 58.1 245.12 58.1 244.55 58.1 242.84 58.1 242.27 58.1 240.56 58.1 240 58.1 238.29 58.1 237.72 58.1 236.01 58.1 235.45 58.1 233.74 58.1 233.17 58.1 231.46 58.1 230.9 58.1 229.19 58.1 228.62 58.1 226.91 58.1 226.34 58.1 224.63 58.1 224.06 58.1 222.36 58.1 221.79 58.1 220.08 58.1 219.51 58.1 217.81 58.1 217.23 58.1 215.53 58.1 214.96 58.1 213.25 58.1 212.68 58.1 210.97 58.1 210.41 58.1 208.7 58.1 208.13 58.1 206.42 58.1 205.85 58.1 204.15 58.1 203.58 58.1 201.87 58.1 201.3 58.1 199.59 58.1 199.03 58.1 197.32 58.1 196.75 58.1 195.04 58.1 194.47 58.1 192.77 58.1 192.2 58.1 190.49 58.1 189.92 58.1 188.21 58.1 187.64 58.1 185.94 58.1 185.37 58.1 183.66 58.1 183.09 58.1 181.38 58.1 180.82 58.1 179.11 58.1 178.54 58.1 176.83 58.1 176.26 58.1 174.56 58.1 173.99 58.1 172.28 58.1 171.71 58.1 170 58.1 169.43 58.1 167.72 58.1 167.16 58.1 165.45 58.1 164.88 58.1 163.17 58.1 162.6 58.1 160.9 58.1 160.33 58.1 158.62 58.1 158.05 58.1 157.36 58.1 156.2 57.95 156.2"/><path class="cls-5" d="M330.19,438.54h-.37l-9.32-4.44h0L314.36,437v-2.89h.34v-1h-.34v-1H297.87v1h-.34v1h.34v2.95h-2.39l-.92-.58h.12v-4.74h-.27v-2H291.9v-2.7h.76v-2.25h-1v-.18h-.45v-8.28h.45v-1.1h.19V414.2H292v-1h.25v-1h.2v-.56h-1v-.31h-1.35l.52-.84h-1v-.32h-.33v-3.59h.33v-1.1h-.85v-.34H289V405h-.29c-.24-3.37-2.28-6.67-5-9.09l-1.78-1.61h0l-.12-.11-.38-.34h.26v-1H281v-.18h-.19v-.36h-.21v-.82h.21v-.4h-1.16v-2.54h.21v-.32h.38v-.39h-.15a3.1,3.1,0,0,0-1.35-2.54h0v-.38h.08v-.45h-.21v-.29h-.9V383a.42.42,0,0,0-.19-.35.29.29,0,0,0,.07-.18v-.3a.26.26,0,1,0-.51,0v.3a.26.26,0,0,0,.07.17.41.41,0,0,0-.22.36v1.24h-.87v.29h-.26v.45h.1v.38h0a3.1,3.1,0,0,0-1.35,2.54h-.26v.39h.41v.32H275v2.54h-1.17v.4H274v.82h-.21v.36h-.18v.18h-.73v1h.34l-.45.4-.05.05h0L271,395.9c-2.68,2.42-4.71,5.72-5,9.09h-.29v.22H266v.34h-1v1.1h.44v3.59H265v.32h-.92l.53.84h-1.36v.31h-1v.56h.19v1h.26v1h.12v1.05H263v1.1h.44v8.29H263v.17h-.46v1.48h-.16v.77H263v2.7h-2.46v2H260v4.74h.09l-.92.58h-2.34v-2h0v-1h.35v-1h-.35v-1H240.34v1H240v1h.34V437l-6.1-2.92h0L225,438.54h-.36v1.62H225v.66h1.19v16.25h-.57v1h.57v9.82H328.56V458h.6v-1h-.6V440.82h1.2v-.66h.43Zm-52.56,2.3h0Zm14.92,0h0Zm23.38,0Zm-23.52-14.53h-.25v-1h.25Zm-.5-1v1h-.22v-1Zm-11.7-33.78v.82h-.59v-.82Zm-5.83,0h.6v.82h-.6Zm-11.61,34.78v-1H263v1Zm-28.54,14.53h0Z" transform="translate(-35.23 -196.49)"/><polygon class="cls-5" points="343.91 236.46 343.08 236.46 343.08 235.88 341.8 235.88 341.8 236.46 336.72 236.46 335.63 236.46 335.63 235.88 334.35 235.88 334.35 236.46 333.52 236.46 333.52 254.28 323.32 251.58 323.32 251.52 323.33 251.52 323.33 250.74 323.44 250.74 323.44 249.97 316.27 249.97 316.27 250.74 316.39 250.74 316.39 251.52 316.39 251.6 309.26 253.89 309.26 245.88 309.26 245.88 308.93 245.88 308.93 245.07 308.92 245.07 308.24 245.07 307.56 245.07 307.56 245.88 307.22 245.88 307.22 254.55 305.34 255.16 305.34 255.98 305.69 255.87 305.69 257.1 303.57 264.09 303.57 270.84 305.69 270.84 305.69 270.8 306.15 270.8 306.15 270.82 306.59 270.82 306.59 270.84 307.86 270.84 309.53 270.84 309.53 270.8 312.24 270.8 312.24 270.84 313.52 270.84 315.19 270.84 315.19 270.8 315.53 270.8 315.53 270.82 316.6 270.82 316.6 270.84 322.79 270.84 322.79 270.82 323.86 270.82 323.86 270.8 326.26 270.8 326.26 270.84 327.54 270.84 329.21 270.84 329.21 270.8 331.93 270.8 331.93 270.84 333.2 270.84 333.2 270.84 333.52 270.84 334.01 270.84 334.03 270.84 334.35 270.84 335.63 270.84 336.13 270.84 336.72 270.84 341.8 270.84 343.08 270.84 343.91 270.84 343.91 270.84 343.91 262.49 343.91 236.46 343.91 236.46"/><polygon class="cls-5" points="444.92 264.05 444.92 237.33 444.94 237.33 444.94 235.71 445.44 235.71 445.44 234.09 444.92 234.09 444.92 228.78 425.68 228.78 425.68 222.94 388.77 222.94 388.69 222.94 367.43 222.94 367.43 228.78 359.99 228.78 359.99 234.09 359.21 234.09 359.21 235.71 359.99 235.71 359.99 237.33 359.99 264.05 359.21 264.05 359.21 269.94 388.69 269.94 388.77 269.94 389.47 269.94 419.67 269.94 445.88 269.94 445.88 264.05 444.92 264.05"/><polygon class="cls-5" points="519.98 254.5 519.98 220.18 519.98 219.09 519.98 213.33 515.53 213.33 515.53 202.61 511.78 202.61 511.78 189.45 511.78 188.39 512.17 188.39 512.17 186.95 511.78 186.95 511.78 186.13 508.02 186.13 497.86 180.79 487.7 186.13 483.94 186.13 483.94 186.95 483.56 186.95 483.56 188.39 483.94 188.39 483.94 189.45 483.94 202.61 480.19 202.61 480.19 213.05 475.75 213.05 475.75 219.09 475.75 220.18 475.75 254.5 458.7 254.5 458.7 269.94 485.84 269.94 486.44 269.94 487.98 269.94 488.02 269.94 488.81 269.94 492.54 269.94 492.55 269.94 492.91 269.94 494.11 269.94 494.42 269.94 494.44 269.94 494.9 269.94 501.24 269.94 501.41 269.94 502.81 269.94 503.6 269.94 507.32 269.94 507.38 269.94 507.7 269.94 508.9 269.94 509.69 269.94 510 269.94 537.02 269.94 537.02 266.93 537.02 264.18 537.02 261.71 537.02 258.95 537.02 254.5 519.98 254.5"/><rect class="cls-5" x="588.74" y="155.63" width="60.36" height="113.93"/><rect class="cls-6" x="591.2" y="155.63" width="0.79" height="113.93"/><rect class="cls-7" x="591.99" y="155.63" width="0.79" height="113.93"/><rect class="cls-6" x="595.54" y="155.63" width="0.79" height="113.93"/><rect class="cls-7" x="596.34" y="155.63" width="0.79" height="113.93"/><rect class="cls-6" x="603.51" y="155.63" width="0.79" height="113.93"/><rect class="cls-7" x="604.31" y="155.63" width="0.79" height="113.93"/><rect class="cls-6" x="611.83" y="155.63" width="0.79" height="113.93"/><rect class="cls-7" x="612.62" y="155.63" width="0.79" height="113.93"/><rect class="cls-6" x="619.53" y="155.63" width="0.79" height="113.93"/><rect class="cls-7" x="620.32" y="155.63" width="0.79" height="113.93"/><rect class="cls-6" x="627.23" y="155.63" width="0.79" height="113.93"/><rect class="cls-7" x="628.02" y="155.63" width="0.79" height="113.93"/><rect class="cls-6" x="634.93" y="155.63" width="0.79" height="113.93"/><rect class="cls-7" x="635.73" y="155.63" width="0.79" height="113.93"/><rect class="cls-6" x="641.75" y="155.63" width="0.79" height="113.93"/><rect class="cls-7" x="642.54" y="155.63" width="0.79" height="113.93"/><rect class="cls-6" x="588.81" y="159.68" width="60.28" height="1.28"/><rect class="cls-7" x="588.81" y="160.96" width="60.28" height="1.28"/><rect class="cls-6" x="588.81" y="171.61" width="60.28" height="1.28"/><rect class="cls-7" x="588.81" y="172.89" width="60.28" height="1.28"/><rect class="cls-6" x="588.81" y="183.55" width="60.28" height="1.28"/><rect class="cls-7" x="588.81" y="184.83" width="60.28" height="1.28"/><rect class="cls-6" x="588.81" y="195.49" width="60.28" height="1.28"/><rect class="cls-7" x="588.81" y="196.77" width="60.28" height="1.28"/><rect class="cls-6" x="588.81" y="207.42" width="60.28" height="1.28"/><rect class="cls-7" x="588.81" y="208.7" width="60.28" height="1.28"/><rect class="cls-6" x="588.81" y="219.36" width="60.28" height="1.28"/><rect class="cls-7" x="588.81" y="220.64" width="60.28" height="1.28"/><rect class="cls-6" x="588.81" y="231.3" width="60.28" height="1.28"/><rect class="cls-7" x="588.81" y="232.57" width="60.28" height="1.28"/><rect class="cls-6" x="588.81" y="244.94" width="60.28" height="1.28"/><rect class="cls-7" x="588.81" y="246.22" width="60.28" height="1.28"/><rect class="cls-6" x="588.81" y="258.58" width="60.28" height="1.28"/><rect class="cls-7" x="588.81" y="259.86" width="60.28" height="1.28"/><rect class="cls-6" x="599.63" y="155.63" width="0.79" height="113.93"/><rect class="cls-7" x="600.43" y="155.63" width="0.79" height="113.93"/><rect class="cls-6" x="608.06" y="155.63" width="0.79" height="113.93"/><rect class="cls-7" x="608.85" y="155.63" width="0.79" height="113.93"/><rect class="cls-6" x="615.64" y="155.63" width="0.79" height="113.93"/><rect class="cls-7" x="616.43" y="155.63" width="0.79" height="113.93"/><rect class="cls-6" x="623.14" y="155.63" width="0.79" height="113.93"/><rect class="cls-7" x="623.93" y="155.63" width="0.79" height="113.93"/><rect class="cls-6" x="630.84" y="155.63" width="0.79" height="113.93"/><rect class="cls-7" x="631.63" y="155.63" width="0.79" height="113.93"/><rect class="cls-6" x="638.54" y="155.63" width="0.79" height="113.93"/><rect class="cls-7" x="639.34" y="155.63" width="0.79" height="113.93"/><rect class="cls-6" x="644.96" y="155.63" width="0.79" height="113.93"/><rect class="cls-7" x="645.75" y="155.63" width="0.79" height="113.93"/><polygon class="cls-5" points="618.96 185.81 588.74 158.15 588.74 155.63 618.96 183.28 618.96 185.81"/><polygon class="cls-5" points="618.96 185.81 649.17 158.15 649.17 155.63 618.96 183.28 618.96 185.81"/><rect class="cls-5" x="593.65" y="155.63" width="0.96" height="6.65"/><rect class="cls-5" x="598.1" y="155.63" width="0.96" height="10.38"/><rect class="cls-5" x="601.76" y="155.63" width="0.96" height="13.43"/><rect class="cls-5" x="606.17" y="155.63" width="0.96" height="17.91"/><rect class="cls-5" x="610.1" y="155.63" width="0.96" height="21.48"/><rect class="cls-5" x="614.03" y="155.63" width="0.96" height="24.71"/><rect class="cls-5" x="617.99" y="155.63" width="0.96" height="27.66"/><rect class="cls-5" x="621.6" y="155.63" width="0.96" height="25.9"/><rect class="cls-5" x="625.57" y="155.63" width="0.96" height="22.39"/><rect class="cls-5" x="629.3" y="155.63" width="0.96" height="19.34"/><rect class="cls-5" x="633.31" y="155.63" width="0.96" height="15.56"/><rect class="cls-5" x="636.92" y="155.63" width="0.96" height="12.36"/><rect class="cls-5" x="640.41" y="155.63" width="0.96" height="9.67"/><rect class="cls-5" x="643.62" y="155.63" width="0.96" height="6.18"/><rect class="cls-5" x="647.19" y="155.63" width="0.96" height="3.09"/><rect class="cls-5" x="589.68" y="155.63" width="0.96" height="3.09"/><path class="cls-4" d="M756.72,459.13V430.4h-.16v-11H736.33v-4.85H724.55v4.85h-3.73V404.78H721v-3.73h.24v-1.27h-.43v-.38h0l-.16-.35-1-2.16h0l-.18-.38h0l-.65-1.37V395h0v-.65h0v-2.1h0v0h0v-2.09h0V388h0v-4.15h0v-1.06h0l-.57-.44h0l0,0,0,0v-1.78h0v-1.67H718V377.2h-.22v1.69h-.18v1.67h0v1.78l0,0,0,0h0l-.56.45h0v1.06h0V388h0v2.1h0v2.11h0V395h0v.1l-.67,1.39h0l-.18.36h0l-.29.61h0l-.92,1.92v.36h-.67v1.27h.24v3.73h.18v14.66h-6.59v11H708v28.73h-.45v7.09h49.65v-7.09Zm-39.4-66.88v-.39l.26.21v.18h0v.2h-.26v-.2Zm0-4.23v-.38l.26.2V388h0v.2h-.26V388Zm1.21,4.21v.22h-.32v-.2h0v-.18l.32-.25v.41ZM717.32,386v-.39l.26.2V386h0v.12h-.26V386Zm0-2.12v-.39l.29.23v.16h0v.21h-.26v-.21Zm1.21,2.1v.14h-.32V386h0v-.18l.32-.26V386Zm0,7.73h-.32V393l.12-.1.2.16Zm-1.82,2.76.22-.14h.65v.87l-.32-.25h0l-.57-.44Zm2.42,0v0l-.59.45h.21l.43-.34.18.38.25.55h-1.41v-.2l.55-.39h-.21l-.34.24v-.86h.69Zm-3.82,3,0-.07.62-.45.21.52Zm.79-1.67.67.43-.7.5,0-.91Zm1.24-2.63h.09v.09l-.09-.07Zm.18,0h.06v.22l-.07-.07Zm.69,4.3v-.12l.15-.11-.09.23Zm-.72,0-.08-.23.17.13v.1Zm-.42-1,.51.32v.53l-.23-.16Zm.08.54-.61-.42.34-.25Zm1.06-1.12.55.39-.55.35Zm0,1.41v-.53l.48-.3-.28.68Zm.67-.94.33.23-.6.43Zm.09-.08.7-.44,0,.94Zm.86.5,0-.77.28.61Zm.31-.06.25.56-.53-.38Zm-1.27-.51-.66-.46v-.05h1.45Zm-1.29-2.62v.23l-.12.08,0-.39Zm0,.4v.31h-.48Zm0,2.66-.58-.37v0l.59-.42Zm-1.65.13-.21-.14.23-.48Zm0,.12-.45.32.22-.47Zm.19,0,.38-.28.73.51.15.37h-1Zm1.49.71v.25h-1.11l-.1-.25Zm.63,0h1.18l-.1.25h-1.08Zm.2-.11.15-.37.72-.5.39.28-.24.59Zm1.38-.51.7.49v0h-.92Zm-1.58-2.72v-.33l.52.33Zm0-.5v-.19l.12-.1,0,.39Zm-.63-.68h-.26v-.07l.26-.21Zm-.17.35,0,.51-.53.34h0l.45-1Zm-.35,1.57.52.41v.16h-1.36l.42-.9Zm.51.68-.69.5-.73-.47v0Zm-2.25,1.92h.91l.1.25h-.64l-.37-.24Zm4.11.25.1-.25h.9l-.35.24Zm-.44-3.59-.53-.34,0-.52.14-.11.45,1Zm-.51-1.07-.08.07v-.07Zm-.17,0v.14l-.11.09v-.23Zm-1-1.31h.26V394l-.26-.2Zm0-3.36h.26v.11l-.07.06-.19-.14Zm0-.86h.26v.21l-.26-.2Zm0-3.37h.26v.12l-.07.06-.19-.15Zm0-.78h.26v.21l-.26-.21Zm0-1.25h.26v.11l-.07.06-.19-.14Zm0-.87h.29v.23l-.29-.22Zm1.21,4h-.32v-.71l.12-.1.2.16Zm-.32-.9,0,0h0Zm.21,0,.11-.08v.16Zm.11-.24-.21.16-.11-.1v-.08h.32Zm-.32-.8h.27l-.27.21Zm0-1,0,0,0,0Zm0,6.26,0,0h0Zm0-2.1h0l0,0Zm0,4.22,0,0h0Zm.21,0,.11-.08v.16Zm.11-.24-.21.16-.11-.09v-.09h.32Zm-.32-.89h.29l-.29.22Zm.32-.11h-.32v-.71l.12-.09.2.16Zm-.11-.88.11-.08v.16Zm.11-.24-.21.16-.11-.09v-.08h.32Zm-.32-.87h.31l-.31.25Zm.32-.11h-.32v-.71l.12-.1.2.16Zm-.11-.89.11-.08v.17Zm.11-.23-.21.16-.11-.1v-.08h.32Zm-.32-.89h.29l-.29.23Zm.32-2.14h-.32v-.72l.12-.09.2.16Zm-.11-.89.11-.08v.16Zm.11-.24-.21.16-.11-.09v-.08h.32Zm-.33-.88h.3l-.3.22Zm0-.11V383l.25.2Zm-.59,0h-.29l.29-.22Zm-.2,1.23-.09.07v-.14Zm.1.08.07.05v.76h-.26v-.67Zm-.1,2-.09.06v-.13Zm.1.07.07.06v.75h-.26v-.66Zm-.19.92h.26v.22l-.26-.21Zm.26,1-.07.06-.19-.15v0h.26Zm-.17.13-.09.07v-.13Zm.1.08.07.06v.75h-.26v-.66Zm-.19,1.08.26.21v.18h0v.2h-.26v-.59Zm.09.95-.09.07v-.14Zm.1.08.07.06v.74h-.26v-.66Zm-.19.91h.26v.22l-.26-.21Zm.26,1-.07.06-.19-.15v0h.26Zm-.17.14-.09.06v-.13Zm.1.07.07.06v.75h-.26V393Zm-.19,1.09.26.2v.37l-.26.2V394Zm-2,5.7.15.1h-.15Zm5,.1.14-.1v.1ZM718.53,395h-.32v-.28l.32.25Zm-.32-1.2h.31l-.31.25Zm.32-3.47h-.32v-.2h0V390l.32-.25v.6Zm0-2.11h-.32V388h0v-.17l.32-.25V388h0Zm-.32-4.15v-.21h0v-.17l.34-.26v.41h0v.23Zm.33-1-.29-.22h.29Zm-1.22-.07v-.15h.19Zm1.34,11.31h-.13v.44l-.32-.25v-.34l.32-.25v.39h.13Zm-.11-11.57h-.35v-.27Zm-.57-.44h0Zm-.15-3.36H718v.07h-.15Zm0,.22H718v.07h-.15Zm0,.22H718v.08h-.15Zm0,.23H718v.07h-.15Zm0,.23H718V380h-.15Zm0,.22H718v.07h-.15Zm0,.23H718v.07h-.15Zm0,.23H718v.06h-.15Zm0,.22H718v.07h-.15Zm0,.22H718v.07h-.15Zm0,.23H718v.07h-.15Zm0,.22H718v.08h-.15Zm0,.23H718v.07h-.15Zm0,.22H718V382h-.15Zm.15.23v.07h-.15v-.07Zm-.37.65h-.34l.34-.27Z" transform="translate(-35.23 -196.49)"/><path class="cls-3" d="M208.6,465.53a26.79,26.79,0,0,0-53.53,0Z" transform="translate(-35.23 -196.49)"/><path class="cls-3" d="M120.26,465.37a26.79,26.79,0,0,0-53.53,0Z" transform="translate(-35.23 -196.49)"/><path class="cls-2" d="M98.25,460.16A7.13,7.13,0,1,1,91.12,453,7.13,7.13,0,0,1,98.25,460.16Z" transform="translate(-35.23 -196.49)"/><path class="cls-2" d="M201.26,461.28a4.88,4.88,0,1,1-4.88-4.87A4.88,4.88,0,0,1,201.26,461.28Z" transform="translate(-35.23 -196.49)"/><path class="cls-2" d="M83.22,456.82a11.74,11.74,0,1,1-11.74-11.74A11.74,11.74,0,0,1,83.22,456.82Z" transform="translate(-35.23 -196.49)"/><path class="cls-1" d="M66.79,461.43a7.14,7.14,0,1,1-7.14-7.13A7.14,7.14,0,0,1,66.79,461.43Z" transform="translate(-35.23 -196.49)"/><path class="cls-2" d="M389.26,464.88a11.39,11.39,0,0,0-22.76,0Z" transform="translate(-35.23 -196.49)"/><path class="cls-2" d="M330.13,465.59a11.39,11.39,0,0,0-22.76,0Z" transform="translate(-35.23 -196.49)"/><path class="cls-3" d="M606.4,465.37a20.26,20.26,0,0,0-40.48,0Z" transform="translate(-35.23 -196.49)"/><path class="cls-2" d="M230.25,465.59a11.39,11.39,0,0,0-22.76,0Z" transform="translate(-35.23 -196.49)"/><path class="cls-2" d="M608.71,460.16a4.93,4.93,0,0,0-3.44,1.39,4.94,4.94,0,0,0-6.83,0,4.95,4.95,0,0,0-8.34,3.36h23.55A5,5,0,0,0,608.71,460.16Z" transform="translate(-35.23 -196.49)"/><path class="cls-1" d="M623.64,461.72a3.54,3.54,0,0,1-4.93,0,3.52,3.52,0,0,0-2.43,1,3.55,3.55,0,0,0-6,2.41h16.9A3.55,3.55,0,0,0,623.64,461.72Z" transform="translate(-35.23 -196.49)"/><path class="cls-1" d="M589.12,461.49a3.54,3.54,0,0,1-4.93,0,3.54,3.54,0,0,1-4.87,0,3.55,3.55,0,0,0-3.55,3.38h16.9A3.56,3.56,0,0,0,589.12,461.49Z" transform="translate(-35.23 -196.49)"/><path class="cls-1" d="M486.58,461.41a3.51,3.51,0,0,0-2.46,1,3.54,3.54,0,0,0-4.9,0,3.55,3.55,0,0,0-6,2.41h16.91A3.57,3.57,0,0,0,486.58,461.41Z" transform="translate(-35.23 -196.49)"/><path class="cls-2" d="M400.26,459.29a7.13,7.13,0,1,1-7.14-7.13A7.13,7.13,0,0,1,400.26,459.29Z" transform="translate(-35.23 -196.49)"/><path class="cls-3" d="M397.07,460.08a4.92,4.92,0,0,0-3.43,1.39,4.94,4.94,0,0,0-6.83,0,4.95,4.95,0,0,0-8.34,3.36H402A5,5,0,0,0,397.07,460.08Z" transform="translate(-35.23 -196.49)"/><path class="cls-3" d="M372.34,460.16a4.93,4.93,0,0,0-3.44,1.39,4.94,4.94,0,0,0-6.83,0,4.95,4.95,0,0,0-8.34,3.37h23.55A5,5,0,0,0,372.34,460.16Z" transform="translate(-35.23 -196.49)"/><path class="cls-1" d="M407.13,461.41a3.55,3.55,0,0,0-2.47,1,3.53,3.53,0,0,0-4.89,0,3.55,3.55,0,0,0-6,2.41h16.9A3.55,3.55,0,0,0,407.13,461.41Z" transform="translate(-35.23 -196.49)"/><path class="cls-1" d="M363.31,461.41a3.51,3.51,0,0,0-2.46,1,3.54,3.54,0,0,0-4.9,0,3.55,3.55,0,0,0-6,2.41h16.9A3.55,3.55,0,0,0,363.31,461.41Z" transform="translate(-35.23 -196.49)"/><path class="cls-1" d="M211.81,461.59a3.54,3.54,0,0,0-2.47,1,3.54,3.54,0,0,0-4.9,0,3.55,3.55,0,0,0-6,2.42h16.9A3.57,3.57,0,0,0,211.81,461.59Z" transform="translate(-35.23 -196.49)"/><path class="cls-3" d="M725.44,466.1a12.47,12.47,0,0,0-24.92,0Z" transform="translate(-35.23 -196.49)"/><path class="cls-3" d="M762.66,466.1a12.47,12.47,0,0,0-24.91,0Z" transform="translate(-35.23 -196.49)"/><path class="cls-2" d="M704.61,460.16a5.48,5.48,0,0,0-3.83,1.55,5.5,5.5,0,0,0-7.6,0,5.52,5.52,0,0,0-9.29,3.75h26.23A5.52,5.52,0,0,0,704.61,460.16Z" transform="translate(-35.23 -196.49)"/><path class="cls-1" d="M691.12,461.59a3.58,3.58,0,0,1-4.94,0,3.56,3.56,0,0,1-4.86,0,3.55,3.55,0,0,0-3.55,3.38h16.9A3.56,3.56,0,0,0,691.12,461.59Z" transform="translate(-35.23 -196.49)"/><path class="cls-1" d="M716.34,461.59a3.56,3.56,0,0,1-4.93,0,3.57,3.57,0,0,1-4.87,0A3.57,3.57,0,0,0,703,465h16.9A3.55,3.55,0,0,0,716.34,461.59Z" transform="translate(-35.23 -196.49)"/><path class="cls-1" d="M746.89,461.59a3.56,3.56,0,0,1-4.93,0,3.57,3.57,0,0,1-4.87,0,3.57,3.57,0,0,0-3.56,3.38h16.91A3.56,3.56,0,0,0,746.89,461.59Z" transform="translate(-35.23 -196.49)"/><rect class="cls-5" y="267.67" width="731.08" height="17.44"/></svg>